# Blender 3.6.2
# www.blender.org
mtllib nk_construct.mtl
o Plane
v -250.000000 0.000000 253.000000
v 250.000000 0.000000 253.000000
v -250.000000 0.000000 -247.000000
v 250.000000 0.000000 -247.000000
vn -0.0000 1.0000 -0.0000
vt 1.000000 0.000000
vt 0.000000 1.000000
vt 0.000000 0.000000
vt 1.000000 1.000000
s 0
usemtl grass
f 2/1/1 3/2/1 1/3/1
f 2/1/1 4/4/1 3/2/1
o Cube
v 6.000000 0.000000 6.000000
v 6.000000 1.000000 6.000000
v 6.000000 0.000000 -16.000000
v 6.000000 1.000000 -16.000000
v 26.000000 0.000000 6.000000
v 26.000000 1.000000 6.000000
v 26.000000 0.000000 -16.000000
v 26.000000 1.000000 -16.000000
vn -1.0000 -0.0000 -0.0000
vn -0.0000 -0.0000 -1.0000
vn 1.0000 -0.0000 -0.0000
vn -0.0000 -0.0000 1.0000
vn -0.0000 -1.0000 -0.0000
vn -0.0000 1.0000 -0.0000
vt 0.625000 0.000000
vt 0.375000 0.250000
vt 0.375000 0.000000
vt 0.625000 0.250000
vt 0.375000 0.500000
vt 0.625000 0.500000
vt 0.375000 0.750000
vt 0.625000 0.750000
vt 0.375000 1.000000
vt 0.125000 0.750000
vt 0.125000 0.500000
vt 0.875000 0.500000
vt 0.625000 1.000000
vt 0.875000 0.750000
s 0
usemtl stone
f 6/5/2 7/6/2 5/7/2
f 8/8/3 11/9/3 7/6/3
f 12/10/4 9/11/4 11/9/4
f 10/12/5 5/13/5 9/11/5
f 11/9/6 5/14/6 7/15/6
f 8/16/7 10/12/7 12/10/7
f 6/5/2 8/8/2 7/6/2
f 8/8/3 12/10/3 11/9/3
f 12/10/4 10/12/4 9/11/4
f 10/12/5 6/17/5 5/13/5
f 11/9/6 9/11/6 5/14/6
f 8/16/7 6/18/7 10/12/7
o Cube.001
v 7.000000 1.000000 5.000000
v 7.000000 8.000000 5.000000
v 7.000000 1.000000 -15.000000
v 7.000000 8.000000 -15.000000
v 8.000000 1.000000 5.000000
v 8.000000 8.000000 5.000000
v 8.000000 1.000000 -15.000000
v 8.000000 8.000000 -15.000000
vn -1.0000 -0.0000 -0.0000
vn -0.0000 -0.0000 -1.0000
vn 1.0000 -0.0000 -0.0000
vn -0.0000 -0.0000 1.0000
vn -0.0000 -1.0000 -0.0000
vn -0.0000 1.0000 -0.0000
vt 0.625000 0.000000
vt 0.375000 0.250000
vt 0.375000 0.000000
vt 0.625000 0.250000
vt 0.375000 0.500000
vt 0.625000 0.500000
vt 0.375000 0.750000
vt 0.625000 0.750000
vt 0.375000 1.000000
vt 0.125000 0.750000
vt 0.125000 0.500000
vt 0.875000 0.500000
vt 0.625000 1.000000
vt 0.875000 0.750000
s 0
usemtl brick
f 14/19/8 15/20/8 13/21/8
f 16/22/9 19/23/9 15/20/9
f 20/24/10 17/25/10 19/23/10
f 18/26/11 13/27/11 17/25/11
f 19/23/12 13/28/12 15/29/12
f 16/30/13 18/26/13 20/24/13
f 14/19/8 16/22/8 15/20/8
f 16/22/9 20/24/9 19/23/9
f 20/24/10 18/26/10 17/25/10
f 18/26/11 14/31/11 13/27/11
f 19/23/12 17/25/12 13/28/12
f 16/30/13 14/32/13 18/26/13
o Cube.002
v 24.000000 1.000000 5.000000
v 24.000000 8.000000 5.000000
v 24.000000 1.000000 -15.000000
v 24.000000 8.000000 -15.000000
v 25.000000 1.000000 5.000000
v 25.000000 8.000000 5.000000
v 25.000000 1.000000 -15.000000
v 25.000000 8.000000 -15.000000
vn -1.0000 -0.0000 -0.0000
vn -0.0000 -0.0000 -1.0000
vn 1.0000 -0.0000 -0.0000
vn -0.0000 -0.0000 1.0000
vn -0.0000 -1.0000 -0.0000
vn -0.0000 1.0000 -0.0000
vt 0.625000 0.000000
vt 0.375000 0.250000
vt 0.375000 0.000000
vt 0.625000 0.250000
vt 0.375000 0.500000
vt 0.625000 0.500000
vt 0.375000 0.750000
vt 0.625000 0.750000
vt 0.375000 1.000000
vt 0.125000 0.750000
vt 0.125000 0.500000
vt 0.875000 0.500000
vt 0.625000 1.000000
vt 0.875000 0.750000
s 0
usemtl brick
f 22/33/14 23/34/14 21/35/14
f 24/36/15 27/37/15 23/34/15
f 28/38/16 25/39/16 27/37/16
f 26/40/17 21/41/17 25/39/17
f 27/37/18 21/42/18 23/43/18
f 24/44/19 26/40/19 28/38/19
f 22/33/14 24/36/14 23/34/14
f 24/36/15 28/38/15 27/37/15
f 28/38/16 26/40/16 25/39/16
f 26/40/17 22/45/17 21/41/17
f 27/37/18 25/39/18 21/42/18
f 24/44/19 22/46/19 26/40/19
o Cube.003
v 8.000000 1.000000 5.000000
v 8.000000 8.000000 5.000000
v 8.000000 1.000000 4.000000
v 8.000000 8.000000 4.000000
v 14.000000 1.000000 5.000000
v 14.000000 8.000000 5.000000
v 14.000000 1.000000 4.000000
v 14.000000 8.000000 4.000000
v 8.000000 5.005390 5.000000
v 8.000000 5.005390 4.000000
v 14.000000 5.005390 4.000000
v 14.000000 5.005390 5.000000
v 18.000000 8.000000 5.000000
v 18.000000 8.000000 4.000000
v 18.000000 5.005390 4.000000
v 18.000000 5.005390 5.000000
v 24.000000 8.000000 5.000000
v 24.000000 8.000000 4.000000
v 24.000000 5.005390 4.000000
v 24.000000 5.005390 5.000000
v 18.000000 1.005390 4.000000
v 18.000000 1.005390 5.000000
v 24.000000 1.005390 4.000000
v 24.000000 1.005390 5.000000
vn -1.0000 -0.0000 -0.0000
vn -0.0000 -0.0000 -1.0000
vn -0.0000 -0.0000 1.0000
vn -0.0000 -1.0000 -0.0000
vn -0.0000 1.0000 -0.0000
vn 1.0000 -0.0000 -0.0000
vt 0.625000 0.000000
vt 0.537500 0.250000
vt 0.537500 0.000000
vt 0.625000 0.250000
vt 0.537500 0.500000
vt 0.537500 0.750000
vt 0.625000 0.750000
vt 0.537500 1.000000
vt 0.375000 0.500000
vt 0.125000 0.750000
vt 0.125000 0.500000
vt 0.875000 0.500000
vt 0.625000 0.500000
vt 0.375000 1.000000
vt 0.375000 0.750000
vt 0.375000 0.250000
vt 0.375000 0.000000
vt 0.625000 1.000000
vt 0.875000 0.750000
s 0
usemtl brick
f 30/47/20 38/48/20 37/49/20
f 32/50/21 39/51/21 38/48/21
f 40/52/22 41/53/22 34/53/22
f 34/53/22 37/54/22 40/52/22
f 35/55/23 29/56/23 31/57/23
f 32/58/24 34/53/24 36/59/24
f 40/52/22 29/60/22 33/61/22
f 39/51/25 33/61/25 35/55/25
f 38/48/21 35/55/21 31/62/21
f 37/49/20 31/62/20 29/63/20
f 44/52/22 45/53/22 41/53/22
f 36/59/21 43/51/21 39/51/21
f 34/53/24 42/59/24 36/59/24
f 39/51/23 44/52/23 40/52/23
f 46/59/25 48/52/25 47/51/25
f 41/53/24 46/59/24 42/59/24
f 47/51/21 49/51/21 43/51/21
f 42/59/21 47/51/21 43/51/21
f 49/51/23 52/52/23 50/52/23
f 48/52/25 51/51/25 47/51/25
f 43/51/20 50/52/20 44/52/20
f 44/52/22 52/52/22 48/52/22
f 30/47/20 32/50/20 38/48/20
f 32/50/21 36/59/21 39/51/21
f 40/52/22 44/52/22 41/53/22
f 34/53/22 30/64/22 37/54/22
f 35/55/23 33/61/23 29/56/23
f 32/58/24 30/65/24 34/53/24
f 40/52/22 37/54/22 29/60/22
f 39/51/25 40/52/25 33/61/25
f 38/48/21 39/51/21 35/55/21
f 37/49/20 38/48/20 31/62/20
f 44/52/22 48/52/22 45/53/22
f 36/59/21 42/59/21 43/51/21
f 34/53/24 41/53/24 42/59/24
f 39/51/23 43/51/23 44/52/23
f 46/59/25 45/53/25 48/52/25
f 41/53/24 45/53/24 46/59/24
f 47/51/21 51/51/21 49/51/21
f 42/59/21 46/59/21 47/51/21
f 49/51/23 51/51/23 52/52/23
f 48/52/25 52/52/25 51/51/25
f 43/51/20 49/51/20 50/52/20
f 44/52/22 50/52/22 52/52/22
o Cube.004
v 8.000000 1.000000 -14.000000
v 8.000000 8.000000 -14.000000
v 8.000000 1.000000 -15.000000
v 8.000000 8.000000 -15.000000
v 24.000000 1.000000 -14.000000
v 24.000000 8.000000 -14.000000
v 24.000000 1.000000 -15.000000
v 24.000000 8.000000 -15.000000
vn -1.0000 -0.0000 -0.0000
vn -0.0000 -0.0000 -1.0000
vn 1.0000 -0.0000 -0.0000
vn -0.0000 -0.0000 1.0000
vn -0.0000 -1.0000 -0.0000
vn -0.0000 1.0000 -0.0000
vt 0.625000 0.000000
vt 0.375000 0.250000
vt 0.375000 0.000000
vt 0.625000 0.250000
vt 0.375000 0.500000
vt 0.625000 0.500000
vt 0.375000 0.750000
vt 0.625000 0.750000
vt 0.375000 1.000000
vt 0.125000 0.750000
vt 0.125000 0.500000
vt 0.875000 0.500000
vt 0.625000 1.000000
vt 0.875000 0.750000
s 0
usemtl brick
f 54/66/26 55/67/26 53/68/26
f 56/69/27 59/70/27 55/67/27
f 60/71/28 57/72/28 59/70/28
f 58/73/29 53/74/29 57/72/29
f 59/70/30 53/75/30 55/76/30
f 56/77/31 58/73/31 60/71/31
f 54/66/26 56/69/26 55/67/26
f 56/69/27 60/71/27 59/70/27
f 60/71/28 58/73/28 57/72/28
f 58/73/29 54/78/29 53/74/29
f 59/70/30 57/72/30 53/75/30
f 56/77/31 54/79/31 58/73/31
o Cube.005
v 6.000000 0.000000 10.000000
v 6.000000 1.000000 7.000000
v 6.000000 0.000000 6.000000
v 6.000000 1.000000 6.000000
v 26.000000 0.000000 10.000000
v 26.000000 1.000000 7.000000
v 26.000000 0.000000 6.000000
v 26.000000 1.000000 6.000000
vn -1.0000 -0.0000 -0.0000
vn -0.0000 -0.0000 -1.0000
vn 1.0000 -0.0000 -0.0000
vn -0.0000 0.9487 0.3162
vn -0.0000 -1.0000 -0.0000
vn -0.0000 1.0000 -0.0000
vt 0.625000 0.000000
vt 0.375000 0.250000
vt 0.375000 0.000000
vt 0.625000 0.250000
vt 0.375000 0.500000
vt 0.625000 0.750000
vt 0.375000 0.750000
vt 0.375000 1.000000
vt 0.125000 0.750000
vt 0.125000 0.500000
vt 0.875000 0.500000
vt 0.625000 0.500000
vt 0.625000 1.000000
vt 0.875000 0.750000
s 0
usemtl stone
f 62/80/32 63/81/32 61/82/32
f 64/83/33 67/84/33 63/81/33
f 67/84/34 66/85/34 65/86/34
f 66/85/35 61/87/35 65/86/35
f 67/84/36 61/88/36 63/89/36
f 64/90/37 66/85/37 68/91/37
f 62/80/32 64/83/32 63/81/32
f 64/83/33 68/91/33 67/84/33
f 67/84/34 68/91/34 66/85/34
f 66/85/35 62/92/35 61/87/35
f 67/84/36 65/86/36 61/88/36
f 64/90/37 62/93/37 66/85/37
o Cube.006
v 6.000000 8.000000 6.000000
v 6.000000 9.000000 6.000000
v 6.000000 8.000000 -16.000000
v 6.000000 9.000000 -16.000000
v 26.000000 8.000000 6.000000
v 26.000000 9.000000 6.000000
v 26.000000 8.000000 -16.000000
v 26.000000 9.000000 -16.000000
vn -1.0000 -0.0000 -0.0000
vn -0.0000 -0.0000 -1.0000
vn 1.0000 -0.0000 -0.0000
vn -0.0000 -0.0000 1.0000
vn -0.0000 -1.0000 -0.0000
vn -0.0000 1.0000 -0.0000
vt 0.625000 0.000000
vt 0.375000 0.250000
vt 0.375000 0.000000
vt 0.625000 0.250000
vt 0.375000 0.500000
vt 0.625000 0.500000
vt 0.375000 0.750000
vt 0.625000 0.750000
vt 0.375000 1.000000
vt 0.125000 0.750000
vt 0.125000 0.500000
vt 0.875000 0.500000
vt 0.625000 1.000000
vt 0.875000 0.750000
s 0
usemtl stone
f 70/94/38 71/95/38 69/96/38
f 72/97/39 75/98/39 71/95/39
f 76/99/40 73/100/40 75/98/40
f 74/101/41 69/102/41 73/100/41
f 75/98/42 69/103/42 71/104/42
f 72/105/43 74/101/43 76/99/43
f 70/94/38 72/97/38 71/95/38
f 72/97/39 76/99/39 75/98/39
f 76/99/40 74/101/40 73/100/40
f 74/101/41 70/106/41 69/102/41
f 75/98/42 73/100/42 69/103/42
f 72/105/43 70/107/43 74/101/43
o Cube.007
v 26.000000 0.000000 10.000000
v 26.000000 5.000000 -16.000000
v 26.000000 0.000000 -20.000000
v 26.000000 5.000000 -20.000000
v 30.000000 0.000000 10.000000
v 30.000000 5.000000 -16.000000
v 30.000000 0.000000 -20.000000
v 30.000000 5.000000 -20.000000
vn -1.0000 -0.0000 -0.0000
vn -0.0000 -0.0000 -1.0000
vn 1.0000 -0.0000 -0.0000
vn -0.0000 0.9820 0.1888
vn -0.0000 -1.0000 -0.0000
vn -0.0000 1.0000 -0.0000
vt 0.625000 0.000000
vt 0.375000 0.250000
vt 0.375000 0.000000
vt 0.625000 0.250000
vt 0.375000 0.500000
vt 0.625000 0.750000
vt 0.375000 0.750000
vt 0.375000 1.000000
vt 0.125000 0.750000
vt 0.125000 0.500000
vt 0.875000 0.500000
vt 0.625000 0.500000
vt 0.625000 1.000000
vt 0.875000 0.750000
s 0
usemtl stone
f 78/108/44 79/109/44 77/110/44
f 80/111/45 83/112/45 79/109/45
f 83/112/46 82/113/46 81/114/46
f 82/113/47 77/115/47 81/114/47
f 83/112/48 77/116/48 79/117/48
f 80/118/49 82/113/49 84/119/49
f 78/108/44 80/111/44 79/109/44
f 80/111/45 84/119/45 83/112/45
f 83/112/46 84/119/46 82/113/46
f 82/113/47 78/120/47 77/115/47
f 83/112/48 81/114/48 77/116/48
f 80/118/49 78/121/49 82/113/49
o Cube.008
v 25.980114 5.000000 -16.000000
v 8.980114 9.000000 -15.999998
v 5.980114 5.000000 -15.999998
v 5.980114 9.000000 -15.999998
v 25.980114 5.000000 -20.000000
v 8.980114 9.000000 -19.999998
v 5.980114 5.000000 -19.999998
v 5.980114 9.000000 -19.999998
v 25.980114 0.000000 -16.000000
v 5.980114 0.000000 -15.999998
v 25.980114 0.000000 -20.000000
v 5.980114 0.000000 -19.999998
vn -0.0000 -0.0000 1.0000
vn -1.0000 -0.0000 -0.0000
vn -0.0000 -0.0000 -1.0000
vn 0.2290 0.9734 -0.0000
vn -0.0000 1.0000 -0.0000
vn -0.0000 -1.0000 -0.0000
vn 1.0000 -0.0000 -0.0000
vt 0.625000 0.000000
vt 0.375000 0.250000
vt 0.375000 0.000000
vt 0.625000 0.250000
vt 0.375000 0.500000
vt 0.625000 0.750000
vt 0.375000 0.750000
vt 0.375000 1.000000
vt 0.875000 0.500000
vt 0.625000 0.500000
vt 0.125000 0.750000
vt 0.125000 0.500000
vt 0.625000 1.000000
vt 0.875000 0.750000
s 0
usemtl stone
f 86/122/50 87/123/50 85/124/50
f 88/125/51 91/126/51 87/123/51
f 91/126/52 90/127/52 89/128/52
f 90/127/53 85/129/53 89/128/53
f 91/126/51 94/123/51 87/123/51
f 88/130/54 90/127/54 92/131/54
f 96/126/55 93/132/55 94/133/55
f 87/123/50 93/124/50 85/124/50
f 89/128/52 96/126/52 91/126/52
f 85/129/56 95/128/56 89/128/56
f 86/122/50 88/125/50 87/123/50
f 88/125/51 92/131/51 91/126/51
f 91/126/52 92/131/52 90/127/52
f 90/127/53 86/134/53 85/129/53
f 91/126/51 96/126/51 94/123/51
f 88/130/54 86/135/54 90/127/54
f 96/126/55 95/128/55 93/132/55
f 87/123/50 94/123/50 93/124/50
f 89/128/52 95/128/52 96/126/52
f 85/129/56 93/129/56 95/128/56
