# Blender 3.6.2
# www.blender.org
mtllib scene2.mtl
o Cube.001_Cube.003
v -500.000000 0.000038 500.000000
v -500.000000 0.000000 0.000000
v -450.000000 -0.000012 500.000275
v -450.000000 -0.000050 0.000300
v -499.999939 250.000046 500.000000
v -499.999939 250.000000 -0.000019
v -449.999939 250.000000 500.000275
v -449.999939 249.999954 0.000281
vn -0.0000 -1.0000 -0.0000
vn 1.0000 -0.0000 -0.0000
vn -0.0000 1.0000 -0.0000
vn -1.0000 -0.0000 -0.0000
vn -0.0000 -0.0000 1.0000
vn -0.0000 -0.0000 -1.0000
vt 0.375000 0.000000
vt 0.625000 0.250000
vt 0.375000 0.250000
vt 0.375000 0.500000
vt 0.625000 0.500000
vt 0.375000 0.750000
vt 0.625000 0.750000
vt 0.375000 1.000000
vt 0.125000 0.750000
vt 0.125000 0.500000
vt 0.875000 0.750000
vt 0.625000 0.000000
vt 0.625000 1.000000
vt 0.875000 0.500000
s 0
usemtl Material.001
f 1/1/1 4/2/1 3/3/1
f 4/2/2 7/4/2 3/3/2
f 8/5/3 5/6/3 7/4/3
f 6/7/4 1/8/4 5/6/4
f 7/4/5 1/9/5 3/10/5
f 8/5/6 2/11/6 6/7/6
f 1/1/1 2/12/1 4/2/1
f 4/2/2 8/5/2 7/4/2
f 8/5/3 6/7/3 5/6/3
f 6/7/4 2/13/4 1/8/4
f 7/4/5 5/6/5 1/9/5
f 8/5/6 4/14/6 2/11/6
o Cube.002_Cube.004
v -100.000000 0.000023 300.000000
v -100.000000 0.000004 50.000000
v 150.000000 -0.000027 300.000305
v 150.000000 -0.000046 50.000298
v -99.999954 250.000031 299.999969
v -99.999954 250.000000 49.999981
v 150.000046 249.999969 300.000275
v 150.000046 249.999954 50.000278
vn -0.0000 -1.0000 -0.0000
vn 1.0000 -0.0000 -0.0000
vn -0.0000 1.0000 -0.0000
vn -1.0000 -0.0000 -0.0000
vn -0.0000 -0.0000 1.0000
vn -0.0000 -0.0000 -1.0000
vt 0.375000 0.000000
vt 0.625000 0.250000
vt 0.375000 0.250000
vt 0.375000 0.500000
vt 0.625000 0.500000
vt 0.375000 0.750000
vt 0.625000 0.750000
vt 0.375000 1.000000
vt 0.125000 0.750000
vt 0.125000 0.500000
vt 0.875000 0.500000
vt 0.625000 0.000000
vt 0.625000 1.000000
vt 0.875000 0.750000
s 0
usemtl Material.001
f 9/15/7 12/16/7 11/17/7
f 12/16/8 15/18/8 11/17/8
f 16/19/9 13/20/9 15/18/9
f 14/21/10 9/22/10 13/20/10
f 15/18/11 9/23/11 11/24/11
f 12/25/12 14/21/12 16/19/12
f 9/15/7 10/26/7 12/16/7
f 12/16/8 16/19/8 15/18/8
f 16/19/9 14/21/9 13/20/9
f 14/21/10 10/27/10 9/22/10
f 15/18/11 13/20/11 9/23/11
f 12/25/12 10/28/12 14/21/12
o Cube.003_Cube.005
v -300.000000 0.000038 500.000000
v -300.000000 0.000023 300.000000
v -300.000000 -50.000011 500.000275
v -300.000000 -50.000023 300.000305
v 150.000046 250.000046 500.000000
v 150.000092 250.000031 299.999969
v 150.000046 199.999985 500.000275
v 150.000092 199.999969 300.000275
vn -1.0000 -0.0000 -0.0000
vn 0.4856 -0.8742 -0.0000
vn 1.0000 -0.0000 -0.0000
vn -0.4856 0.8742 -0.0000
vn -0.0000 -0.0000 1.0000
vn -0.0000 -0.0000 -1.0000
vt 0.375000 0.000000
vt 0.625000 0.250000
vt 0.375000 0.250000
vt 0.375000 0.500000
vt 0.625000 0.500000
vt 0.375000 0.750000
vt 0.625000 0.750000
vt 0.375000 1.000000
vt 0.125000 0.750000
vt 0.125000 0.500000
vt 0.875000 0.750000
vt 0.625000 0.000000
vt 0.625000 1.000000
vt 0.875000 0.500000
s 0
usemtl Material.001
f 17/29/13 20/30/13 19/31/13
f 20/30/14 23/32/14 19/31/14
f 24/33/15 21/34/15 23/32/15
f 22/35/16 17/36/16 21/34/16
f 23/32/17 17/37/17 19/38/17
f 24/33/18 18/39/18 22/35/18
f 17/29/13 18/40/13 20/30/13
f 20/30/14 24/33/14 23/32/14
f 24/33/15 22/35/15 21/34/15
f 22/35/16 18/41/16 17/36/16
f 23/32/17 21/34/17 17/37/17
f 24/33/18 20/42/18 18/39/18
o Cube.004_Cube.006
v 150.000000 200.000046 500.000000
v 150.000000 200.000000 49.999985
v 300.000000 199.999985 500.000275
v 300.000000 199.999954 50.000336
v 150.000046 250.000046 500.000000
v 150.000046 250.000000 49.999981
v 300.000061 250.000000 500.000275
v 300.000061 249.999954 50.000336
vn -0.0000 -1.0000 -0.0000
vn 1.0000 -0.0000 -0.0000
vn -0.0000 1.0000 -0.0000
vn -1.0000 -0.0000 -0.0000
vn -0.0000 -0.0000 1.0000
vn -0.0000 -0.0000 -1.0000
vt 0.375000 0.000000
vt 0.625000 0.250000
vt 0.375000 0.250000
vt 0.375000 0.500000
vt 0.625000 0.500000
vt 0.375000 0.750000
vt 0.625000 0.750000
vt 0.375000 1.000000
vt 0.125000 0.500000
vt 0.125000 0.750000
vt 0.875000 0.500000
vt 0.625000 0.000000
vt 0.625000 1.000000
vt 0.875000 0.750000
s 0
usemtl Material.001
f 25/43/19 28/44/19 27/45/19
f 28/44/20 31/46/20 27/45/20
f 32/47/21 29/48/21 31/46/21
f 30/49/22 25/50/22 29/48/22
f 27/51/23 29/48/23 25/52/23
f 28/53/24 30/49/24 32/47/24
f 25/43/19 26/54/19 28/44/19
f 28/44/20 32/47/20 31/46/20
f 32/47/21 30/49/21 29/48/21
f 30/49/22 26/55/22 25/50/22
f 27/51/23 31/46/23 29/48/23
f 28/53/24 26/56/24 30/49/24
o Cube.005_Cube.007
v -100.000000 200.000000 49.999985
v -100.000000 199.999985 -200.000031
v 50.000000 199.999954 50.000278
v 50.000000 199.999939 -199.999710
v -99.999954 250.000000 49.999981
v -99.999954 249.999969 -200.000031
v 50.000046 249.999954 50.000278
v 50.000046 249.999924 -199.999725
vn -0.0000 -1.0000 -0.0000
vn 1.0000 -0.0000 -0.0000
vn -0.0000 1.0000 -0.0000
vn -1.0000 -0.0000 -0.0000
vn -0.0000 -0.0000 1.0000
vn -0.0000 -0.0000 -1.0000
vt 0.375000 0.000000
vt 0.625000 0.250000
vt 0.375000 0.250000
vt 0.375000 0.500000
vt 0.625000 0.500000
vt 0.375000 0.750000
vt 0.625000 0.750000
vt 0.375000 1.000000
vt 0.125000 0.500000
vt 0.125000 0.750000
vt 0.875000 0.500000
vt 0.625000 0.000000
vt 0.625000 1.000000
vt 0.875000 0.750000
s 0
usemtl Material.001
f 33/57/25 36/58/25 35/59/25
f 36/58/26 39/60/26 35/59/26
f 40/61/27 37/62/27 39/60/27
f 38/63/28 33/64/28 37/62/28
f 35/65/29 37/62/29 33/66/29
f 36/67/30 38/63/30 40/61/30
f 33/57/25 34/68/25 36/58/25
f 36/58/26 40/61/26 39/60/26
f 40/61/27 38/63/27 37/62/27
f 38/63/28 34/69/28 33/64/28
f 35/65/29 39/60/29 37/62/29
f 36/67/30 34/70/30 38/63/30
o Cube.006_Cube.008
v -100.000000 -0.000015 -200.000000
v -100.000000 -0.000034 -450.000000
v 150.000000 -0.000065 -199.999756
v 150.000000 -0.000084 -449.999725
v -99.999954 249.999969 -200.000031
v -99.999954 249.999969 -450.000000
v 150.000046 249.999924 -199.999771
v 150.000046 249.999924 -449.999725
vn -0.0000 -1.0000 -0.0000
vn 1.0000 -0.0000 -0.0000
vn -0.0000 1.0000 -0.0000
vn -1.0000 -0.0000 -0.0000
vn -0.0000 -0.0000 1.0000
vn -0.0000 -0.0000 -1.0000
vt 0.375000 0.000000
vt 0.625000 0.250000
vt 0.375000 0.250000
vt 0.375000 0.500000
vt 0.625000 0.500000
vt 0.375000 0.750000
vt 0.625000 0.750000
vt 0.375000 1.000000
vt 0.125000 0.750000
vt 0.125000 0.500000
vt 0.875000 0.500000
vt 0.625000 0.000000
vt 0.625000 1.000000
vt 0.875000 0.750000
s 0
usemtl Material.001
f 41/71/31 44/72/31 43/73/31
f 44/72/32 47/74/32 43/73/32
f 48/75/33 45/76/33 47/74/33
f 46/77/34 41/78/34 45/76/34
f 47/74/35 41/79/35 43/80/35
f 44/81/36 46/77/36 48/75/36
f 41/71/31 42/82/31 44/72/31
f 44/72/32 48/75/32 47/74/32
f 48/75/33 46/77/33 45/76/33
f 46/77/34 42/83/34 41/78/34
f 47/74/35 45/76/35 41/79/35
f 44/81/36 42/84/36 46/77/36
o Cube.007_Cube.012
v -100.000000 -0.000004 -50.000000
v -300.000000 0.000046 -50.000000
v -99.999702 -50.000053 -49.999996
v -299.999695 -50.000008 -49.999996
v -99.999954 250.000031 -450.000000
v -299.999939 250.000076 -450.000000
v -99.999702 199.999969 -450.000000
v -299.999634 200.000031 -450.000000
vn -0.0000 -0.0000 1.0000
vn -0.0000 -0.8480 -0.5300
vn -0.0000 -0.0000 -1.0000
vn -0.0000 0.8480 0.5300
vn 1.0000 -0.0000 -0.0000
vn -1.0000 -0.0000 -0.0000
vt 0.375000 0.000000
vt 0.625000 0.250000
vt 0.375000 0.250000
vt 0.375000 0.500000
vt 0.625000 0.500000
vt 0.375000 0.750000
vt 0.625000 0.750000
vt 0.375000 1.000000
vt 0.125000 0.750000
vt 0.125000 0.500000
vt 0.875000 0.750000
vt 0.625000 0.000000
vt 0.625000 1.000000
vt 0.875000 0.500000
s 0
usemtl Material.001
f 49/85/37 52/86/37 51/87/37
f 52/86/38 55/88/38 51/87/38
f 56/89/39 53/90/39 55/88/39
f 54/91/40 49/92/40 53/90/40
f 55/88/41 49/93/41 51/94/41
f 56/89/42 50/95/42 54/91/42
f 49/85/37 50/96/37 52/86/37
f 52/86/38 56/89/38 55/88/38
f 56/89/39 54/91/39 53/90/39
f 54/91/40 50/97/40 49/92/40
f 55/88/41 53/90/41 49/93/41
f 56/89/42 52/98/42 50/95/42
o Cube.008_Cube.010
v 450.000000 -0.000015 -200.000000
v 450.000000 -0.000034 -450.000000
v 700.000000 -0.000065 -199.999756
v 700.000000 -0.000084 -449.999725
v 450.000061 500.000000 -200.000046
v 450.000061 499.999939 -450.000061
v 700.000061 499.999939 -199.999786
v 700.000061 499.999908 -449.999756
vn -0.0000 -1.0000 -0.0000
vn 1.0000 -0.0000 -0.0000
vn -0.0000 1.0000 -0.0000
vn -1.0000 -0.0000 -0.0000
vn -0.0000 -0.0000 1.0000
vn -0.0000 -0.0000 -1.0000
vt 0.375000 0.000000
vt 0.625000 0.250000
vt 0.375000 0.250000
vt 0.375000 0.500000
vt 0.625000 0.500000
vt 0.375000 0.750000
vt 0.625000 0.750000
vt 0.375000 1.000000
vt 0.125000 0.750000
vt 0.125000 0.500000
vt 0.875000 0.500000
vt 0.625000 0.000000
vt 0.625000 1.000000
vt 0.875000 0.750000
s 0
usemtl Material.001
f 57/99/43 60/100/43 59/101/43
f 60/100/44 63/102/44 59/101/44
f 64/103/45 61/104/45 63/102/45
f 62/105/46 57/106/46 61/104/46
f 63/102/47 57/107/47 59/108/47
f 60/109/48 62/105/48 64/103/48
f 57/99/43 58/110/43 60/100/43
f 60/100/44 64/103/44 63/102/44
f 64/103/45 62/105/45 61/104/45
f 62/105/46 58/111/46 57/106/46
f 63/102/47 61/104/47 57/107/47
f 60/109/48 58/112/48 62/105/48
o Cube.009_Cube.011
v 150.000000 249.999969 -200.000031
v 150.000000 249.999969 -450.000000
v 150.000000 199.999939 -199.999756
v 150.000000 199.999924 -449.999725
v 450.000061 500.000000 -200.000046
v 450.000092 499.999939 -450.000061
v 450.000061 449.999908 -199.999786
v 450.000092 449.999847 -449.999756
vn -1.0000 -0.0000 -0.0000
vn 0.6402 -0.7682 -0.0000
vn 1.0000 -0.0000 -0.0000
vn -0.6402 0.7682 -0.0000
vn -0.0000 -0.0000 1.0000
vn -0.0000 -0.0000 -1.0000
vt 0.375000 0.000000
vt 0.625000 0.250000
vt 0.375000 0.250000
vt 0.375000 0.500000
vt 0.625000 0.500000
vt 0.375000 0.750000
vt 0.625000 0.750000
vt 0.375000 1.000000
vt 0.125000 0.750000
vt 0.125000 0.500000
vt 0.875000 0.750000
vt 0.625000 0.000000
vt 0.625000 1.000000
vt 0.875000 0.500000
s 0
usemtl Material.001
f 65/113/49 68/114/49 67/115/49
f 68/114/50 71/116/50 67/115/50
f 72/117/51 69/118/51 71/116/51
f 70/119/52 65/120/52 69/118/52
f 71/116/53 65/121/53 67/122/53
f 72/117/54 66/123/54 70/119/54
f 65/113/49 66/124/49 68/114/49
f 68/114/50 72/117/50 71/116/50
f 72/117/51 70/119/51 69/118/51
f 70/119/52 66/125/52 65/120/52
f 71/116/53 69/118/53 65/121/53
f 72/117/54 68/126/54 66/123/54
o Cube.010_Cube.013
v -300.000000 199.999969 -450.000000
v -300.000000 199.999954 -600.000000
v 150.000000 199.999924 -449.999725
v 150.000046 199.999908 -599.999695
v -299.999939 249.999969 -450.000000
v -299.999939 249.999954 -600.000000
v 150.000046 249.999924 -449.999725
v 150.000046 249.999908 -599.999695
vn -0.0000 -1.0000 -0.0000
vn 1.0000 -0.0000 -0.0000
vn -0.0000 1.0000 -0.0000
vn -1.0000 -0.0000 -0.0000
vn -0.0000 -0.0000 1.0000
vn -0.0000 -0.0000 -1.0000
vt 0.375000 0.000000
vt 0.625000 0.250000
vt 0.375000 0.250000
vt 0.375000 0.500000
vt 0.625000 0.500000
vt 0.375000 0.750000
vt 0.625000 0.750000
vt 0.375000 1.000000
vt 0.125000 0.750000
vt 0.125000 0.500000
vt 0.875000 0.500000
vt 0.625000 0.000000
vt 0.625000 1.000000
vt 0.875000 0.750000
s 0
usemtl Material.001
f 73/127/55 76/128/55 75/129/55
f 76/128/56 79/130/56 75/129/56
f 80/131/57 77/132/57 79/130/57
f 78/133/58 73/134/58 77/132/58
f 79/130/59 73/135/59 75/136/59
f 76/137/60 78/133/60 80/131/60
f 73/127/55 74/138/55 76/128/55
f 76/128/56 80/131/56 79/130/56
f 80/131/57 78/133/57 77/132/57
f 78/133/58 74/139/58 73/134/58
f 79/130/59 77/132/59 73/135/59
f 76/137/60 74/140/60 78/133/60
o Cube.011_Cube.014
v 500.000000 449.999939 -450.000061
v 500.000000 449.999908 -1000.000000
v 650.000000 449.999908 -449.999756
v 650.000000 449.999847 -999.999634
v 500.000061 499.999939 -450.000061
v 500.000061 499.999908 -1000.000000
v 650.000061 499.999908 -449.999756
v 650.000061 499.999847 -999.999634
vn -0.0000 -1.0000 -0.0000
vn 1.0000 -0.0000 -0.0000
vn -0.0000 1.0000 -0.0000
vn -1.0000 -0.0000 -0.0000
vn -0.0000 -0.0000 1.0000
vn -0.0000 -0.0000 -1.0000
vt 0.375000 0.000000
vt 0.625000 0.250000
vt 0.375000 0.250000
vt 0.375000 0.500000
vt 0.625000 0.500000
vt 0.375000 0.750000
vt 0.625000 0.750000
vt 0.375000 1.000000
vt 0.125000 0.500000
vt 0.125000 0.750000
vt 0.875000 0.500000
vt 0.625000 0.000000
vt 0.625000 1.000000
vt 0.875000 0.750000
s 0
usemtl Material.001
f 81/141/61 84/142/61 83/143/61
f 84/142/62 87/144/62 83/143/62
f 88/145/63 85/146/63 87/144/63
f 86/147/64 81/148/64 85/146/64
f 83/149/65 85/146/65 81/150/65
f 84/151/66 86/147/66 88/145/66
f 81/141/61 82/152/61 84/142/61
f 84/142/62 88/145/62 87/144/62
f 88/145/63 86/147/63 85/146/63
f 86/147/64 82/153/64 81/148/64
f 83/149/65 87/144/65 85/146/65
f 84/151/66 82/154/66 86/147/66
o Cube.012_Cube.015
v 450.000000 -0.000083 -1100.000000
v 450.000000 -0.000102 -1350.000000
v 700.000000 -0.000133 -1099.999756
v 700.000000 -0.000152 -1349.999756
v 450.000061 449.999908 -1100.000000
v 450.000061 449.999908 -1350.000000
v 700.000061 449.999847 -1099.999756
v 700.000061 449.999847 -1349.999756
vn -0.0000 -1.0000 -0.0000
vn 1.0000 -0.0000 -0.0000
vn -0.0000 1.0000 -0.0000
vn -1.0000 -0.0000 -0.0000
vn -0.0000 -0.0000 1.0000
vn -0.0000 -0.0000 -1.0000
vt 0.375000 0.000000
vt 0.625000 0.250000
vt 0.375000 0.250000
vt 0.375000 0.500000
vt 0.625000 0.500000
vt 0.375000 0.750000
vt 0.625000 0.750000
vt 0.375000 1.000000
vt 0.125000 0.750000
vt 0.125000 0.500000
vt 0.875000 0.750000
vt 0.625000 0.000000
vt 0.625000 1.000000
vt 0.875000 0.500000
s 0
usemtl Material.001
f 89/155/67 92/156/67 91/157/67
f 92/156/68 95/158/68 91/157/68
f 96/159/69 93/160/69 95/158/69
f 94/161/70 89/162/70 93/160/70
f 95/158/71 89/163/71 91/164/71
f 96/159/72 90/165/72 94/161/72
f 89/155/67 90/166/67 92/156/67
f 92/156/68 96/159/68 95/158/68
f 96/159/69 94/161/69 93/160/69
f 94/161/70 90/167/70 89/162/70
f 95/158/71 93/160/71 89/163/71
f 96/159/72 92/168/72 90/165/72
o Cube.013_Cube.016
v 350.000000 449.999908 -1000.000000
v 350.000000 449.999908 -1450.000000
v 800.000000 449.999847 -999.999695
v 800.000000 449.999847 -1449.999634
v 350.000061 499.999908 -1000.000000
v 350.000061 499.999908 -1450.000000
v 800.000000 499.999847 -999.999695
v 800.000122 499.999847 -1449.999634
vn -0.0000 -1.0000 -0.0000
vn 1.0000 -0.0000 -0.0000
vn -0.0000 1.0000 -0.0000
vn -1.0000 -0.0000 -0.0000
vn -0.0000 -0.0000 1.0000
vn -0.0000 -0.0000 -1.0000
vt 0.375000 0.000000
vt 0.625000 0.250000
vt 0.375000 0.250000
vt 0.375000 0.500000
vt 0.625000 0.500000
vt 0.375000 0.750000
vt 0.625000 0.750000
vt 0.375000 1.000000
vt 0.125000 0.750000
vt 0.125000 0.500000
vt 0.875000 0.500000
vt 0.625000 0.000000
vt 0.625000 1.000000
vt 0.875000 0.750000
s 0
usemtl Material.001
f 97/169/73 100/170/73 99/171/73
f 100/170/74 103/172/74 99/171/74
f 104/173/75 101/174/75 103/172/75
f 102/175/76 97/176/76 101/174/76
f 103/172/77 97/177/77 99/178/77
f 100/179/78 102/175/78 104/173/78
f 97/169/73 98/180/73 100/170/73
f 100/170/74 104/173/74 103/172/74
f 104/173/75 102/175/75 101/174/75
f 102/175/76 98/181/76 97/176/76
f 103/172/77 101/174/77 97/177/77
f 100/179/78 98/182/78 102/175/78
o Cube_Cube.001
v -500.000000 -49.999962 500.000000
v -500.000000 0.000038 500.000000
v -500.000000 -50.000114 -1500.000000
v -500.000000 -0.000113 -1500.000000
v 1500.000000 -49.999962 500.000000
v 1500.000000 0.000038 500.000000
v 1500.000000 -50.000114 -1500.000000
v 1500.000000 -0.000113 -1500.000000
vn -1.0000 -0.0000 -0.0000
vn -0.0000 -0.0000 -1.0000
vn 1.0000 -0.0000 -0.0000
vn -0.0000 -0.0000 1.0000
vn -0.0000 -1.0000 -0.0000
vn -0.0000 1.0000 -0.0000
vt 0.625000 0.000000
vt 0.375000 0.250000
vt 0.375000 0.000000
vt 0.625000 0.250000
vt 0.375000 0.500000
vt 0.625000 0.500000
vt 0.375000 0.750000
vt 0.625000 0.750000
vt 0.375000 1.000000
vt 0.125000 0.750000
vt 0.125000 0.500000
vt 0.875000 0.500000
vt 0.625000 1.000000
vt 0.875000 0.750000
s 0
usemtl Material.001
f 106/183/79 107/184/79 105/185/79
f 108/186/80 111/187/80 107/184/80
f 112/188/81 109/189/81 111/187/81
f 110/190/82 105/191/82 109/189/82
f 111/187/83 105/192/83 107/193/83
f 108/194/84 110/190/84 112/188/84
f 106/183/79 108/186/79 107/184/79
f 108/186/80 112/188/80 111/187/80
f 112/188/81 110/190/81 109/189/81
f 110/190/82 106/195/82 105/191/82
f 111/187/83 109/189/83 105/192/83
f 108/194/84 106/196/84 110/190/84
