# Blender 3.5.0
# www.blender.org
o Plane
v -10.000000 0.000000 10.000000
v 10.000000 0.000000 10.000000
v -10.000000 0.000000 -10.000000
v 10.000000 0.000000 -10.000000
vn -0.0000 1.0000 -0.0000
vt -4.500000 -4.500000
vt 5.500000 -4.500000
vt -4.500000 5.500000
vt 5.500000 5.500000
s 0
f 2/2/1 3/3/1 1/1/1
f 2/2/1 4/4/1 3/3/1
o Cube
v -4.000000 0.000000 -3.200000
v -4.000000 2.000000 -3.200000
v -4.000000 0.000000 -5.200000
v -4.000000 2.000000 -5.200000
v -2.000000 0.000000 -3.200000
v -2.000000 2.000000 -3.200000
v -2.000000 0.000000 -5.200000
v -2.000000 2.000000 -5.200000
vn -1.0000 -0.0000 -0.0000
vn -0.0000 -0.0000 -1.0000
vn 1.0000 -0.0000 -0.0000
vn -0.0000 -0.0000 1.0000
vn -0.0000 -1.0000 -0.0000
vn -0.0000 1.0000 -0.0000
vt -0.621378 -0.621378
vt -0.621378 1.621378
vt -0.621378 -0.621378
vt -0.621378 -0.621378
vt -0.621378 1.621378
vt 1.621378 -0.621378
vt 1.621378 1.621378
vt -0.621378 1.621378
vt -0.621378 -0.621378
vt 1.621378 -0.621378
vt -0.621378 1.621378
vt 1.621378 1.621378
vt 1.621378 -0.621378
vt 1.621378 -0.621378
vt 1.621378 1.621378
vt 1.621378 1.621378
s 0
f 6/6/2 7/10/2 5/5/2
f 8/12/3 11/18/3 7/8/3
f 12/20/4 9/13/4 11/18/4
f 10/16/5 5/5/5 9/14/5
f 11/19/6 5/5/6 7/9/6
f 8/12/7 10/17/7 12/20/7
f 6/6/2 8/11/2 7/10/2
f 8/12/3 12/20/3 11/18/3
f 12/20/4 10/15/4 9/13/4
f 10/16/5 6/6/5 5/5/5
f 11/19/6 9/14/6 5/5/6
f 8/12/7 6/7/7 10/17/7
o Cube.001
v -4.092729 0.000000 3.345576
v -4.092729 4.000000 3.345576
v -2.945576 0.000000 1.707271
v -2.945576 4.000000 1.707271
v -2.454424 0.000000 4.492728
v -2.454424 4.000000 4.492728
v -1.307271 0.000000 2.854424
v -1.307271 4.000000 2.854424
vn -0.8192 -0.0000 -0.5736
vn 0.5736 -0.0000 -0.8192
vn 0.8192 -0.0000 0.5736
vn -0.5736 -0.0000 0.8192
vn -0.0000 -1.0000 -0.0000
vn -0.0000 1.0000 -0.0000
vt -0.340851 -1.181702
vt -0.340851 -0.340851
vt -0.340851 2.181703
vt -0.340851 -0.340851
vt -0.340851 -1.181702
vt -0.340851 1.340851
vt 1.340851 -1.181702
vt 1.340851 2.181703
vt -0.340851 2.181703
vt -0.340851 1.340851
vt 1.340851 -1.181702
vt -0.340851 -1.181702
vt 1.340851 -0.340851
vt -0.340851 2.181703
vt 1.340851 2.181703
vt 1.340851 -0.340851
vt 1.340851 -1.181702
vt 1.340851 1.340851
vt 1.340851 1.340851
vt 1.340851 2.181703
s 0
f 14/23/8 15/27/8 13/21/8
f 16/29/9 19/37/9 15/25/9
f 20/40/10 17/32/10 19/37/10
f 18/35/11 13/21/11 17/31/11
f 19/38/12 13/22/12 15/26/12
f 16/30/13 18/36/13 20/39/13
f 14/23/8 16/28/8 15/27/8
f 16/29/9 20/40/9 19/37/9
f 20/40/10 18/34/10 17/32/10
f 18/35/11 14/23/11 13/21/11
f 19/38/12 17/33/12 13/22/12
f 16/30/13 14/24/13 18/36/13
o Cube.002
v 3.900000 0.000000 2.200000
v 3.900000 0.200000 2.200000
v 3.900000 0.000000 -2.800000
v 3.900000 2.000000 -2.800000
v 5.900000 0.000000 2.200000
v 5.900000 0.200000 2.200000
v 5.900000 0.000000 -2.800000
v 5.900000 2.000000 -2.800000
vn -1.0000 -0.0000 -0.0000
vn -0.0000 -0.0000 -1.0000
vn 1.0000 -0.0000 -0.0000
vn -0.0000 -0.0000 1.0000
vn -0.0000 -1.0000 -0.0000
vn -0.0000 0.9409 0.3387
vt -0.355284 0.157886
vt 0.157886 0.157886
vt 0.157886 -0.355284
vt -0.355284 0.226309
vt 0.157886 0.226309
vt 0.157886 -0.355284
vt 0.157886 0.157886
vt 0.157886 1.355284
vt 1.355284 0.157886
vt 1.355284 0.842114
vt 0.157886 0.842114
vt 0.157886 1.355284
vt -0.355284 0.157886
vt 0.842114 0.157886
vt 0.842114 -0.355284
vt -0.355284 0.226309
vt 0.842114 0.226309
vt 0.842114 -0.355284
vt 0.842114 0.157886
vt 1.355284 0.157886
vt 0.842114 1.355284
vt 0.842114 1.355284
vt 0.842114 0.842114
vt 1.355284 0.842114
s 0
f 22/44/14 23/49/14 21/41/14
f 24/51/15 27/59/15 23/47/15
f 27/60/16 26/56/16 25/53/16
f 26/57/17 21/42/17 25/54/17
f 27/61/18 21/43/18 23/48/18
f 24/52/19 26/58/19 28/62/19
f 22/44/14 24/50/14 23/49/14
f 24/51/15 28/63/15 27/59/15
f 27/60/16 28/64/16 26/56/16
f 26/57/17 22/45/17 21/42/17
f 27/61/18 25/55/18 21/43/18
f 24/52/19 22/46/19 26/58/19
