# Blender 3.5.1
# www.blender.org
o Cube
v -10.000000 0.000000 10.000000
v -10.000000 10.000000 10.000000
v -10.000000 0.000000 -10.000000
v -10.000000 10.000000 -10.000000
v 10.000000 0.000000 10.000000
v 10.000000 10.000000 10.000000
v 10.000000 0.000000 -10.000000
v 10.000000 10.000000 -10.000000
vn 1.0000 -0.0000 -0.0000
vn -0.0000 -0.0000 1.0000
vn -1.0000 -0.0000 -0.0000
vn -0.0000 -0.0000 -1.0000
vn -0.0000 1.0000 -0.0000
vn -0.0000 -1.0000 -0.0000
vt -1.500000 -0.500000
vt -1.500000 -1.500000
vt -1.500000 1.500000
vt -1.500000 -1.500000
vt -1.500000 -0.500000
vt -1.500000 2.500000
vt 2.500000 -0.500000
vt 2.500000 1.500000
vt -1.500000 1.500000
vt -1.500000 2.500000
vt 2.500000 -0.500000
vt -1.500000 -0.500000
vt 2.500000 -1.500000
vt -1.500000 1.500000
vt 2.500000 1.500000
vt 2.500000 -1.500000
vt 2.500000 -0.500000
vt 2.500000 2.500000
vt 2.500000 2.500000
vt 2.500000 1.500000
s 0
f 3/7/1 2/3/1 1/1/1
f 7/17/2 4/9/2 3/5/2
f 5/12/3 8/20/3 7/17/3
f 1/1/4 6/15/4 5/11/4
f 1/2/5 7/18/5 3/6/5
f 6/16/6 4/10/6 8/19/6
f 3/7/1 4/8/1 2/3/1
f 7/17/2 8/20/2 4/9/2
f 5/12/3 6/14/3 8/20/3
f 1/1/4 2/3/4 6/15/4
f 1/2/5 5/13/5 7/18/5
f 6/16/6 2/4/6 4/10/6
o Cube.001
v -10.000000 0.000000 8.000000
v -10.000000 2.000000 2.000000
v -10.000000 0.000000 -10.000000
v -10.000000 2.000000 -10.000000
v -7.000000 0.000000 8.000000
v -7.000000 2.000000 2.000000
v -7.000000 0.000000 -10.000000
v -7.000000 2.000000 -10.000000
vn -1.0000 -0.0000 -0.0000
vn -0.0000 -0.0000 -1.0000
vn 1.0000 -0.0000 -0.0000
vn -0.0000 0.9487 0.3162
vn -0.0000 -1.0000 -0.0000
vn -0.0000 1.0000 -0.0000
vt -2.450000 0.172222
vt 0.008333 -2.450000
vt -0.483333 0.827778
vt 0.008333 -0.483333
vt 0.008333 0.172222
vt 0.008333 3.450000
vt 3.450000 0.172222
vt 3.450000 0.827778
vt 0.008333 0.827778
vt 0.008333 3.450000
vt -2.450000 0.172222
vt 0.991667 -2.450000
vt -0.483333 0.827778
vt 0.991667 -0.483333
vt 0.991667 0.172222
vt 3.450000 0.172222
vt 0.991667 3.450000
vt 0.991667 3.450000
vt 0.991667 0.827778
vt 3.450000 0.827778
s 0
f 10/23/7 11/27/7 9/21/7
f 12/29/8 15/35/8 11/25/8
f 15/36/9 14/33/9 13/31/9
f 14/34/10 9/22/10 13/32/10
f 15/37/11 9/22/11 11/26/11
f 12/30/12 14/34/12 16/38/12
f 10/23/7 12/28/7 11/27/7
f 12/29/8 16/39/8 15/35/8
f 15/36/9 16/40/9 14/33/9
f 14/34/10 10/24/10 9/22/10
f 15/37/11 13/32/11 9/22/11
f 12/30/12 10/24/12 14/34/12
o Cube.002
v -7.000000 0.000000 -5.000000
v -7.000000 2.000000 -5.000000
v -7.000000 0.000000 -10.000000
v -7.000000 2.000000 -10.000000
v 10.000000 0.000000 -5.000000
v 10.000000 2.000000 -5.000000
v 10.000000 0.000000 -10.000000
v 10.000000 2.000000 -10.000000
vn -1.0000 -0.0000 -0.0000
vn -0.0000 -0.0000 -1.0000
vn 1.0000 -0.0000 -0.0000
vn -0.0000 -0.0000 1.0000
vn -0.0000 -1.0000 -0.0000
vn -0.0000 1.0000 -0.0000
vt -0.308824 0.176471
vt -2.250000 0.176471
vt -2.250000 -0.308824
vt -0.308824 0.823529
vt -2.250000 0.823529
vt -2.250000 -0.308824
vt -2.250000 0.176471
vt -2.250000 1.308824
vt 1.308824 0.176471
vt 1.308824 0.823529
vt -2.250000 0.823529
vt -2.250000 1.308824
vt 3.250000 0.176471
vt -0.308824 0.176471
vt 3.250000 -0.308824
vt -0.308824 0.823529
vt 3.250000 0.823529
vt 3.250000 -0.308824
vt 1.308824 0.176471
vt 3.250000 0.176471
vt 3.250000 1.308824
vt 3.250000 1.308824
vt 3.250000 0.823529
vt 1.308824 0.823529
s 0
f 18/44/13 19/49/13 17/41/13
f 20/51/14 23/60/14 19/47/14
f 24/64/15 21/54/15 23/59/15
f 22/57/16 17/42/16 21/53/16
f 23/61/17 17/43/17 19/48/17
f 20/52/18 22/58/18 24/62/18
f 18/44/13 20/50/13 19/49/13
f 20/51/14 24/63/14 23/60/14
f 24/64/15 22/56/15 21/54/15
f 22/57/16 18/45/16 17/42/16
f 23/61/17 21/55/17 17/43/17
f 20/52/18 18/46/18 22/58/18
o Cube.003
v -1.000000 5.000000 2.000000
v -1.000000 7.000000 2.000000
v -1.000000 5.000000 0.000000
v -1.000000 7.000000 0.000000
v 1.000000 5.000000 2.000000
v 1.000000 7.000000 2.000000
v 1.000000 5.000000 0.000000
v 1.000000 7.000000 0.000000
vn -1.0000 -0.0000 -0.0000
vn -0.0000 -0.0000 -1.0000
vn 1.0000 -0.0000 -0.0000
vn -0.0000 -0.0000 1.0000
vn -0.0000 -1.0000 -0.0000
vn -0.0000 1.0000 -0.0000
vt 0.000000 0.000000
vt 0.000000 1.000000
vt 0.000000 0.000000
vt 0.000000 0.000000
vt 0.000000 1.000000
vt 1.000000 0.000000
vt 1.000000 1.000000
vt 0.000000 1.000000
vt 0.000000 0.000000
vt 1.000000 0.000000
vt 0.000000 1.000000
vt 1.000000 1.000000
vt 1.000000 0.000000
vt 1.000000 0.000000
vt 1.000000 1.000000
vt 1.000000 1.000000
s 0
f 26/66/19 27/70/19 25/65/19
f 28/72/20 31/78/20 27/68/20
f 32/80/21 29/73/21 31/78/21
f 30/76/22 25/65/22 29/74/22
f 31/79/23 25/65/23 27/69/23
f 28/72/24 30/77/24 32/80/24
f 26/66/19 28/71/19 27/70/19
f 28/72/20 32/80/20 31/78/20
f 32/80/21 30/75/21 29/73/21
f 30/76/22 26/66/22 25/65/22
f 31/79/23 29/74/23 25/65/23
f 28/72/24 26/67/24 30/77/24
