# Blender 3.5.1
# www.blender.org
o Plane
v -20.000000 0.000000 20.000000
v 20.000000 0.000000 20.000000
v -20.000000 0.000000 -20.000000
v 20.000000 0.000000 -20.000000
v -6.000000 0.000000 6.000000
v 6.000000 0.000000 6.000000
v -6.000000 0.000000 -6.000000
v 6.000000 0.000000 -6.000000
v -6.000000 1.000000 6.000000
v 6.000000 1.000000 6.000000
v -6.000000 1.000000 -6.000000
v 6.000000 1.000000 -6.000000
v -5.000000 1.000000 5.000000
v 5.000000 1.000000 5.000000
v -5.000000 1.000000 -5.000000
v 5.000000 1.000000 -5.000000
v -5.000000 -4.000000 5.000000
v 5.000000 -4.000000 5.000000
v -5.000000 -4.000000 -5.000000
v 5.000000 -4.000000 -5.000000
vn -0.0000 -1.0000 -0.0000
vn -0.0000 -0.0000 -1.0000
vn -0.0000 1.0000 -0.0000
vn -0.0000 -0.0000 1.0000
vn 1.0000 -0.0000 -0.0000
vn -1.0000 -0.0000 -0.0000
vt -5.500000 -5.500000
vt 6.500000 -5.500000
vt -5.500000 6.500000
vt 6.500000 6.500000
vt -1.300000 -1.300000
vt -1.300000 0.950000
vt -1.300000 0.950000
vt 2.300000 -1.300000
vt 2.300000 0.950000
vt 2.300000 0.950000
vt -1.300000 0.950000
vt -1.300000 2.300000
vt 2.300000 2.300000
vt 2.300000 0.950000
vt -1.300000 1.250000
vt -1.300000 -1.300000
vt 2.300000 1.250000
vt -1.300000 1.250000
vt 2.300000 -1.300000
vt -1.300000 1.250000
vt 2.300000 1.250000
vt -1.300000 2.300000
vt 2.300000 2.300000
vt 2.300000 1.250000
vt -1.000000 -1.000000
vt -1.000000 1.250000
vt -1.000000 1.250000
vt 2.000000 -1.000000
vt 2.000000 1.250000
vt 2.000000 1.250000
vt -1.000000 1.250000
vt -1.000000 2.000000
vt 2.000000 2.000000
vt 2.000000 1.250000
vt -1.000000 -1.000000
vt -1.000000 -0.250000
vt 2.000000 -1.000000
vt 2.000000 -0.250000
vt -1.000000 -0.250000
vt -1.000000 -0.250000
vt -1.000000 2.000000
vt 2.000000 -0.250000
vt 2.000000 2.000000
vt 2.000000 -0.250000
s 0
f 3/3/1 2/2/1 1/1/1
f 7/11/2 12/24/2 8/14/2
f 4/4/3 6/8/3 2/2/3
f 1/1/3 7/12/3 3/3/3
f 3/3/3 8/13/3 4/4/3
f 2/2/3 5/5/3 1/1/3
f 12/23/3 14/28/3 10/19/3
f 6/9/4 9/15/4 5/6/4
f 8/14/5 10/18/5 6/7/5
f 5/6/6 11/21/6 7/10/6
f 15/31/4 20/44/4 16/34/4
f 9/16/3 15/32/3 11/22/3
f 11/22/3 16/33/3 12/23/3
f 10/19/3 13/25/3 9/16/3
f 18/37/3 19/41/3 17/35/3
f 14/29/2 17/36/2 13/26/2
f 16/34/6 18/39/6 14/27/6
f 13/26/5 19/42/5 15/30/5
f 3/3/1 4/4/1 2/2/1
f 7/11/2 11/20/2 12/24/2
f 4/4/3 8/13/3 6/8/3
f 1/1/3 5/5/3 7/12/3
f 3/3/3 7/12/3 8/13/3
f 2/2/3 6/8/3 5/5/3
f 12/23/3 16/33/3 14/28/3
f 6/9/4 10/17/4 9/15/4
f 8/14/5 12/24/5 10/18/5
f 5/6/6 9/15/6 11/21/6
f 15/31/4 19/40/4 20/44/4
f 9/16/3 13/25/3 15/32/3
f 11/22/3 15/32/3 16/33/3
f 10/19/3 14/28/3 13/25/3
f 18/37/3 20/43/3 19/41/3
f 14/29/2 18/38/2 17/36/2
f 16/34/6 20/44/6 18/39/6
f 13/26/5 17/36/5 19/42/5
o Cube.001
v -13.000000 0.000000 -3.000000
v -13.000000 5.000000 -3.000000
v -13.000000 0.000000 -8.000000
v -13.000000 5.000000 -8.000000
v -12.000000 0.000000 -3.000000
v -12.000000 5.000000 -3.000000
v -12.000000 0.000000 -8.000000
v -12.000000 5.000000 -8.000000
vn -1.0000 -0.0000 -0.0000
vn -0.0000 -0.0000 -1.0000
vn 1.0000 -0.0000 -0.0000
vn -0.0000 -0.0000 1.0000
vn -0.0000 -1.0000 -0.0000
vn -0.0000 1.0000 -0.0000
vt -1.000000 -1.000000
vt 0.200000 -1.000000
vt -1.000000 2.000000
vt 0.200000 2.000000
vt 0.200000 -1.000000
vt 0.200000 -1.000000
vt 0.200000 2.000000
vt 2.000000 -1.000000
vt 2.000000 2.000000
vt 0.200000 2.000000
vt -1.000000 -1.000000
vt 0.800000 -1.000000
vt -1.000000 2.000000
vt 0.800000 2.000000
vt 0.800000 -1.000000
vt 2.000000 -1.000000
vt 0.800000 -1.000000
vt 0.800000 2.000000
vt 0.800000 2.000000
vt 2.000000 2.000000
s 0
f 22/47/7 23/52/7 21/45/7
f 24/54/8 27/61/8 23/50/8
f 28/64/9 25/55/9 27/60/9
f 26/58/10 21/46/10 25/56/10
f 27/62/11 21/46/11 23/51/11
f 24/54/12 26/59/12 28/63/12
f 22/47/7 24/53/7 23/52/7
f 24/54/8 28/63/8 27/61/8
f 28/64/9 26/57/9 25/55/9
f 26/58/10 22/48/10 21/46/10
f 27/62/11 25/56/11 21/46/11
f 24/54/12 22/49/12 26/59/12
o Cube.002
v -13.000000 0.000000 -8.000000
v -13.000000 5.000000 -8.000000
v -13.000000 0.000000 -9.000000
v -13.000000 5.000000 -9.000000
v -7.000000 0.000000 -8.000000
v -7.000000 5.000000 -8.000000
v -7.000000 0.000000 -9.000000
v -7.000000 5.000000 -9.000000
vn -1.0000 -0.0000 -0.0000
vn -0.0000 -0.0000 -1.0000
vn 1.0000 -0.0000 -0.0000
vn -0.0000 -0.0000 1.0000
vn -0.0000 -1.0000 -0.0000
vn -0.0000 1.0000 -0.0000
vt 0.250000 -0.750000
vt -1.000000 -0.750000
vt -1.000000 0.250000
vt 0.250000 1.750000
vt -1.000000 1.750000
vt -1.000000 0.250000
vt -1.000000 -0.750000
vt -1.000000 0.750000
vt 0.750000 -0.750000
vt 0.750000 1.750000
vt -1.000000 1.750000
vt -1.000000 0.750000
vt 2.000000 -0.750000
vt 0.250000 -0.750000
vt 2.000000 0.250000
vt 0.250000 1.750000
vt 2.000000 1.750000
vt 2.000000 0.250000
vt 0.750000 -0.750000
vt 2.000000 -0.750000
vt 2.000000 0.750000
vt 2.000000 0.750000
vt 2.000000 1.750000
vt 0.750000 1.750000
s 0
f 30/68/13 31/73/13 29/65/13
f 32/75/14 35/84/14 31/71/14
f 36/88/15 33/78/15 35/83/15
f 34/81/16 29/66/16 33/77/16
f 35/85/17 29/67/17 31/72/17
f 32/76/18 34/82/18 36/86/18
f 30/68/13 32/74/13 31/73/13
f 32/75/14 36/87/14 35/84/14
f 36/88/15 34/80/15 33/78/15
f 34/81/16 30/69/16 29/66/16
f 35/85/17 33/79/17 29/67/17
f 32/76/18 30/70/18 34/82/18
o Cube.003
v 10.000000 0.000000 1.000000
v 10.000000 3.000000 1.000000
v 10.000000 0.000000 -9.000000
v 10.000000 3.000000 -2.000000
v 14.000000 0.000000 1.000000
v 14.000000 3.000000 1.000000
v 14.000000 0.000000 -9.000000
v 14.000000 3.000000 -2.000000
vn -1.0000 -0.0000 -0.0000
vn -0.0000 0.9191 -0.3939
vn 1.0000 -0.0000 -0.0000
vn -0.0000 -0.0000 1.0000
vn -0.0000 -1.0000 -0.0000
vn -0.0000 1.0000 -0.0000
vt -1.000000 0.050000
vt -0.100000 0.050000
vt -0.100000 -1.000000
vt -1.000000 0.950000
vt -0.100000 0.950000
vt -0.100000 -1.000000
vt 2.000000 0.050000
vt -0.100000 2.000000
vt -0.100000 0.950000
vt -0.100000 -0.100000
vt 1.100000 0.050000
vt -1.000000 0.050000
vt 1.100000 -1.000000
vt -1.000000 0.950000
vt 1.100000 0.950000
vt 1.100000 -1.000000
vt 2.000000 0.050000
vt 1.100000 2.000000
vt 1.100000 -0.100000
vt -0.100000 0.950000
s 0
f 37/89/19 40/97/19 39/95/19
f 40/98/20 43/106/20 39/96/20
f 44/108/21 41/100/21 43/105/21
f 42/103/22 37/90/22 41/99/22
f 43/106/23 37/91/23 39/96/23
f 40/98/24 42/104/24 44/107/24
f 37/89/19 38/92/19 40/97/19
f 40/98/20 44/107/20 43/106/20
f 44/108/21 42/102/21 41/100/21
f 42/103/22 38/93/22 37/90/22
f 43/106/23 41/101/23 37/91/23
f 40/98/24 38/94/24 42/104/24
