# Blender 3.5.0
# www.blender.org
o Plane
v -10.000000 0.000000 10.000000
v 10.000000 0.000000 10.000000
v -10.000000 0.000000 -10.000000
v 10.000000 0.000000 -10.000000
vn -0.0000 1.0000 -0.0000
vt -4.500000 -4.500000
vt 5.500000 -4.500000
vt -4.500000 5.500000
vt 5.500000 5.500000
s 0
f 2/2/1 3/3/1 1/1/1
f 2/2/1 4/4/1 3/3/1
o Cube
v -6.000000 0.000000 -4.200000
v -6.000000 2.000000 -4.200000
v -6.000000 0.000000 -6.200000
v -6.000000 2.000000 -6.200000
v -4.000000 0.000000 -4.200000
v -4.000000 2.000000 -4.200000
v -4.000000 0.000000 -6.200000
v -4.000000 2.000000 -6.200000
vn -1.0000 -0.0000 -0.0000
vn -0.0000 -0.0000 -1.0000
vn 1.0000 -0.0000 -0.0000
vn -0.0000 -0.0000 1.0000
vn -0.0000 -1.0000 -0.0000
vn -0.0000 1.0000 -0.0000
vt 0.000000 0.000000
vt 0.000000 1.000000
vt 0.000000 0.000000
vt 0.000000 0.000000
vt 0.000000 1.000000
vt 1.000000 0.000000
vt 1.000000 1.000000
vt 0.000000 1.000000
vt 0.000000 0.000000
vt 1.000000 0.000000
vt 0.000000 1.000000
vt 1.000000 1.000000
vt 1.000000 0.000000
vt 1.000000 0.000000
vt 1.000000 1.000000
vt 1.000000 1.000000
s 0
f 6/6/2 7/10/2 5/5/2
f 8/12/3 11/18/3 7/8/3
f 12/20/4 9/13/4 11/18/4
f 10/16/5 5/5/5 9/14/5
f 11/19/6 5/5/6 7/9/6
f 8/12/7 10/17/7 12/20/7
f 6/6/2 8/11/2 7/10/2
f 8/12/3 12/20/3 11/18/3
f 12/20/4 10/15/4 9/13/4
f 10/16/5 6/6/5 5/5/5
f 11/19/6 9/14/6 5/5/6
f 8/12/7 6/7/7 10/17/7
o Cube.001
v -6.092729 0.000000 5.345575
v -6.092729 4.000000 5.345575
v -4.945576 0.000000 3.707271
v -4.945576 4.000000 3.707271
v -4.454424 0.000000 6.492728
v -4.454424 4.000000 6.492728
v -3.307271 0.000000 4.854424
v -3.307271 4.000000 4.854424
vn -0.8192 -0.0000 -0.5736
vn 0.5736 -0.0000 -0.8192
vn 0.8192 -0.0000 0.5736
vn -0.5736 -0.0000 0.8192
vn -0.0000 -1.0000 -0.0000
vn -0.0000 1.0000 -0.0000
vt 0.000983 -0.498034
vt 0.000983 0.000983
vt 0.000983 1.498034
vt 0.000983 0.000983
vt 0.000983 -0.498034
vt 0.000983 0.999017
vt 0.999017 -0.498034
vt 0.999017 1.498034
vt 0.000983 1.498034
vt 0.000983 0.999017
vt 0.999017 -0.498034
vt 0.000983 -0.498034
vt 0.999017 0.000983
vt 0.000983 1.498034
vt 0.999017 1.498034
vt 0.999017 0.000983
vt 0.999017 -0.498034
vt 0.999017 0.999017
vt 0.999017 0.999017
vt 0.999017 1.498034
s 0
f 14/23/8 15/27/8 13/21/8
f 16/29/9 19/37/9 15/25/9
f 20/40/10 17/32/10 19/37/10
f 18/35/11 13/21/11 17/31/11
f 19/38/12 13/22/12 15/26/12
f 16/30/13 18/36/13 20/39/13
f 14/23/8 16/28/8 15/27/8
f 16/29/9 20/40/9 19/37/9
f 20/40/10 18/34/10 17/32/10
f 18/35/11 14/23/11 13/21/11
f 19/38/12 17/33/12 13/22/12
f 16/30/13 14/24/13 18/36/13
o Cube.002
v 4.944309 0.000000 4.074697
v 7.576093 0.000000 -0.176621
v 7.576093 2.000000 -0.176621
v 6.644836 0.000000 5.127412
v 9.276621 0.000000 0.876093
v 9.276621 2.000000 0.876093
vn -0.8503 -0.0000 -0.5264
vn 0.5264 -0.0000 -0.8503
vn -0.1955 0.9285 0.3158
vn -0.0000 -1.0000 -0.0000
vn 0.8503 -0.0000 0.5264
vt -0.750000 0.000000
vt 0.000000 -0.750000
vt 1.750000 0.000000
vt 0.000000 0.000000
vt 0.000000 1.750000
vt 1.750000 1.000000
vt 0.000000 1.000000
vt 0.000000 1.750000
vt -0.750000 0.000000
vt 1.000000 -0.750000
vt 1.750000 0.000000
vt 1.000000 0.000000
vt 1.000000 1.750000
vt 1.000000 1.750000
vt 1.750000 1.000000
vt 1.000000 1.000000
s 0
f 22/43/14 21/41/14 23/46/14
f 23/47/15 25/52/15 22/44/15
f 23/48/16 24/50/16 26/54/16
f 25/53/17 21/42/17 22/45/17
f 25/51/18 26/55/18 24/49/18
f 23/47/15 26/56/15 25/52/15
f 23/48/16 21/42/16 24/50/16
f 25/53/17 24/50/17 21/42/17
o Cube.003
v 2.000000 0.000000 -1.000000
v 2.000000 1.000000 -1.000000
v 2.000000 0.000000 -5.000000
v 2.000000 1.000000 -5.000000
v 6.000000 0.000000 -1.000000
v 6.000000 1.000000 -1.000000
v 6.000000 0.000000 -5.000000
v 6.000000 1.000000 -5.000000
v 4.666667 0.000000 -5.000000
v 3.333333 0.000000 -5.000000
v 3.333333 1.000000 -5.000000
v 4.666667 1.000000 -5.000000
v 3.333333 0.000000 -1.000000
v 4.666667 0.000000 -1.000000
v 4.666667 1.000000 -1.000000
v 3.333333 1.000000 -1.000000
v 2.000000 0.000000 -3.666667
v 2.000000 0.000000 -2.333333
v 2.000000 1.000000 -2.333333
v 2.000000 1.000000 -3.666667
v 6.000000 0.000000 -2.333333
v 6.000000 0.000000 -3.666667
v 6.000000 1.000000 -3.666667
v 6.000000 1.000000 -2.333333
v 5.533333 1.000000 -4.533333
v 5.533333 1.000000 -1.466667
v 2.466667 1.000000 -4.533333
v 2.466667 1.000000 -1.466667
v 3.333333 0.000000 -3.666667
v 3.333333 0.000000 -2.333333
v 4.666667 0.000000 -3.666667
v 4.666667 0.000000 -2.333333
v 5.533333 0.400000 -4.533333
v 5.533333 0.400000 -1.466667
v 2.466667 0.400000 -4.533333
v 2.466667 0.400000 -1.466667
vn -1.0000 -0.0000 -0.0000
vn -0.0000 -0.0000 -1.0000
vn 1.0000 -0.0000 -0.0000
vn -0.0000 -0.0000 1.0000
vn -0.0000 -1.0000 -0.0000
vn -0.0000 1.0000 -0.0000
vt -0.306632 0.298342
vt -0.306632 -0.306632
vt -0.306632 -0.306632
vt -0.306632 0.701658
vt -0.306632 0.298342
vt -0.306632 1.306632
vt 1.306632 0.298342
vt 1.306632 0.701658
vt -0.306632 0.701658
vt -0.306632 1.306632
vt 1.306632 0.298342
vt -0.306632 0.298342
vt 1.306632 -0.306632
vt -0.306632 0.701658
vt 1.306632 -0.306632
vt 1.306632 0.701658
vt 1.306632 0.298342
vt 1.306632 1.306632
vt 1.306632 1.306632
vt 1.306632 0.701658
vt 0.768877 0.298342
vt 0.768877 1.306632
vt 0.231123 0.298342
vt 0.231123 1.306632
vt 0.231123 0.701658
vt 0.231123 1.306632
vt 0.768877 0.701658
vt 0.768877 1.306632
vt 0.231123 -0.306632
vt 0.231123 0.298342
vt 0.768877 -0.306632
vt 0.768877 0.298342
vt 0.768877 -0.306632
vt 0.768877 0.701658
vt 0.231123 -0.306632
vt 0.231123 0.701658
vt -0.306632 0.768877
vt 0.768877 0.298342
vt -0.306632 0.231123
vt 0.231123 0.298342
vt -0.306632 0.231123
vt 0.231123 0.701658
vt -0.306632 0.768877
vt 0.768877 0.701658
vt 1.306632 0.231123
vt 0.231123 0.298342
vt 1.306632 0.768877
vt 0.768877 0.298342
vt 1.306632 0.768877
vt 0.768877 0.701658
vt 1.306632 0.231123
vt 0.231123 0.701658
vt 1.118418 1.118418
vt 1.118418 0.701658
vt -0.118418 0.701658
vt 1.118418 -0.118418
vt 1.118418 0.701658
vt 1.118418 0.701658
vt -0.118418 1.118418
vt -0.118418 0.701658
vt -0.118418 0.701658
vt -0.118418 -0.118418
vt 0.231123 0.768877
vt 0.231123 0.231123
vt 0.768877 0.768877
vt 0.768877 0.231123
vt 1.118418 1.118418
vt 1.118418 0.459668
vt 1.118418 -0.118418
vt -0.118418 0.459668
vt 1.118418 0.459668
vt 1.118418 0.459668
vt -0.118418 1.118418
vt -0.118418 0.459668
vt -0.118418 -0.118418
vt -0.118418 0.459668
s 0
f 46/100/19 29/63/19 43/94/19
f 38/83/20 33/73/20 35/77/20
f 50/108/21 31/68/21 47/102/21
f 42/92/22 27/57/22 39/86/22
f 47/101/23 40/87/23 58/122/23
f 54/118/24 28/59/24 42/91/24
f 52/112/24 32/71/24 50/107/24
f 54/118/24 41/89/24 52/112/24
f 56/120/23 27/58/23 44/95/23
f 58/122/23 39/85/23 56/120/23
f 32/72/22 40/88/22 31/67/22
f 41/90/22 39/86/22 40/88/22
f 30/65/20 36/79/20 29/61/20
f 37/81/20 35/77/20 36/79/20
f 35/78/23 55/119/23 36/80/23
f 57/121/23 56/120/23 55/119/23
f 36/80/23 43/93/23 29/62/23
f 55/119/23 44/95/23 43/93/23
f 37/82/24 51/109/24 38/84/24
f 54/117/21 61/128/21 53/114/21
f 34/75/24 51/109/24 49/105/24
f 51/109/24 50/107/24 49/105/24
f 30/66/24 53/115/24 37/82/24
f 46/99/24 54/118/24 53/115/24
f 33/74/23 57/121/23 35/78/23
f 48/103/23 58/122/23 57/121/23
f 34/76/21 48/104/21 33/73/21
f 49/106/21 47/102/21 48/104/21
f 28/60/19 44/96/19 27/57/19
f 45/98/19 43/94/19 44/96/19
f 61/129/24 60/125/24 59/123/24
f 51/110/19 60/126/19 52/111/19
f 53/116/22 59/124/22 51/110/22
f 52/113/20 62/132/20 54/117/20
f 46/100/19 30/64/19 29/63/19
f 38/83/20 34/76/20 33/73/20
f 50/108/21 32/70/21 31/68/21
f 42/92/22 28/60/22 27/57/22
f 47/101/23 31/69/23 40/87/23
f 54/118/24 45/97/24 28/59/24
f 52/112/24 41/89/24 32/71/24
f 54/118/24 42/91/24 41/89/24
f 56/120/23 39/85/23 27/58/23
f 58/122/23 40/87/23 39/85/23
f 32/72/22 41/90/22 40/88/22
f 41/90/22 42/92/22 39/86/22
f 30/65/20 37/81/20 36/79/20
f 37/81/20 38/83/20 35/77/20
f 35/78/23 57/121/23 55/119/23
f 57/121/23 58/122/23 56/120/23
f 36/80/23 55/119/23 43/93/23
f 55/119/23 56/120/23 44/95/23
f 37/82/24 53/115/24 51/109/24
f 54/117/21 62/132/21 61/128/21
f 34/75/24 38/84/24 51/109/24
f 51/109/24 52/112/24 50/107/24
f 30/66/24 46/99/24 53/115/24
f 46/99/24 45/97/24 54/118/24
f 33/74/23 48/103/23 57/121/23
f 48/103/23 47/101/23 58/122/23
f 34/76/21 49/106/21 48/104/21
f 49/106/21 50/108/21 47/102/21
f 28/60/19 45/98/19 44/96/19
f 45/98/19 46/100/19 43/94/19
f 61/129/24 62/131/24 60/125/24
f 51/110/19 59/124/19 60/126/19
f 53/116/22 61/130/22 59/124/22
f 52/113/20 60/127/20 62/132/20
