# Blender 3.5.0
# www.blender.org
o Cube
v -10.000000 0.000000 10.000000
v -10.000000 10.000000 10.000000
v -10.000000 0.000000 -10.000000
v -10.000000 10.000000 -10.000000
v 10.000000 0.000000 10.000000
v 10.000000 10.000000 10.000000
v 10.000000 0.000000 -10.000000
v 10.000000 10.000000 -10.000000
vn 1.0000 -0.0000 -0.0000
vn -0.0000 -0.0000 1.0000
vn -1.0000 -0.0000 -0.0000
vn -0.0000 -0.0000 -1.0000
vn -0.0000 1.0000 -0.0000
vn -0.0000 -1.0000 -0.0000
vt -1.500000 -0.500000
vt -1.500000 -1.500000
vt -1.500000 1.500000
vt -1.500000 -1.500000
vt -1.500000 -0.500000
vt -1.500000 2.500000
vt 2.500000 -0.500000
vt 2.500000 1.500000
vt -1.500000 1.500000
vt -1.500000 2.500000
vt 2.500000 -0.500000
vt -1.500000 -0.500000
vt 2.500000 -1.500000
vt -1.500000 1.500000
vt 2.500000 1.500000
vt 2.500000 -1.500000
vt 2.500000 -0.500000
vt 2.500000 2.500000
vt 2.500000 2.500000
vt 2.500000 1.500000
s 0
f 3/7/1 2/3/1 1/1/1
f 7/17/2 4/9/2 3/5/2
f 5/12/3 8/20/3 7/17/3
f 1/1/4 6/15/4 5/11/4
f 1/2/5 7/18/5 3/6/5
f 6/16/6 4/10/6 8/19/6
f 3/7/1 4/8/1 2/3/1
f 7/17/2 8/20/2 4/9/2
f 5/12/3 6/14/3 8/20/3
f 1/1/4 2/3/4 6/15/4
f 1/2/5 5/13/5 7/18/5
f 6/16/6 2/4/6 4/10/6
o Cube.001
v -10.000000 0.000000 8.000000
v -10.000000 2.000000 2.000000
v -10.000000 0.000000 -10.000000
v -10.000000 2.000000 -10.000000
v -7.000000 0.000000 8.000000
v -7.000000 2.000000 2.000000
v -7.000000 0.000000 -10.000000
v -7.000000 2.000000 -10.000000
vn -1.0000 -0.0000 -0.0000
vn -0.0000 -0.0000 -1.0000
vn 1.0000 -0.0000 -0.0000
vn -0.0000 0.9487 0.3162
vn -0.0000 -1.0000 -0.0000
vn -0.0000 1.0000 -0.0000
vt -2.450000 0.172222
vt 0.008333 -2.450000
vt -0.483333 0.827778
vt 0.008333 -0.483333
vt 0.008333 0.172222
vt 0.008333 3.450000
vt 3.450000 0.172222
vt 3.450000 0.827778
vt 0.008333 0.827778
vt 0.008333 3.450000
vt -2.450000 0.172222
vt 0.991667 -2.450000
vt -0.483333 0.827778
vt 0.991667 -0.483333
vt 0.991667 0.172222
vt 3.450000 0.172222
vt 0.991667 3.450000
vt 0.991667 3.450000
vt 0.991667 0.827778
vt 3.450000 0.827778
s 0
f 10/23/7 11/27/7 9/21/7
f 12/29/8 15/35/8 11/25/8
f 15/36/9 14/33/9 13/31/9
f 14/34/10 9/22/10 13/32/10
f 15/37/11 9/22/11 11/26/11
f 12/30/12 14/34/12 16/38/12
f 10/23/7 12/28/7 11/27/7
f 12/29/8 16/39/8 15/35/8
f 15/36/9 16/40/9 14/33/9
f 14/34/10 10/24/10 9/22/10
f 15/37/11 13/32/11 9/22/11
f 12/30/12 10/24/12 14/34/12
o Cube.002
v -7.000000 0.000000 -5.000000
v -7.000000 2.000000 -5.000000
v -7.000000 0.000000 -10.000000
v -7.000000 2.000000 -10.000000
v 10.000000 0.000000 -5.000000
v 10.000000 2.000000 -5.000000
v 10.000000 0.000000 -10.000000
v 10.000000 2.000000 -10.000000
vn -1.0000 -0.0000 -0.0000
vn -0.0000 -0.0000 -1.0000
vn 1.0000 -0.0000 -0.0000
vn -0.0000 -0.0000 1.0000
vn -0.0000 -1.0000 -0.0000
vn -0.0000 1.0000 -0.0000
vt -0.308824 0.176471
vt -2.250000 0.176471
vt -2.250000 -0.308824
vt -0.308824 0.823529
vt -2.250000 0.823529
vt -2.250000 -0.308824
vt -2.250000 0.176471
vt -2.250000 1.308824
vt 1.308824 0.176471
vt 1.308824 0.823529
vt -2.250000 0.823529
vt -2.250000 1.308824
vt 3.250000 0.176471
vt -0.308824 0.176471
vt 3.250000 -0.308824
vt -0.308824 0.823529
vt 3.250000 0.823529
vt 3.250000 -0.308824
vt 1.308824 0.176471
vt 3.250000 0.176471
vt 3.250000 1.308824
vt 3.250000 1.308824
vt 3.250000 0.823529
vt 1.308824 0.823529
s 0
f 18/44/13 19/49/13 17/41/13
f 20/51/14 23/60/14 19/47/14
f 24/64/15 21/54/15 23/59/15
f 22/57/16 17/42/16 21/53/16
f 23/61/17 17/43/17 19/48/17
f 20/52/18 22/58/18 24/62/18
f 18/44/13 20/50/13 19/49/13
f 20/51/14 24/63/14 23/60/14
f 24/64/15 22/56/15 21/54/15
f 22/57/16 18/45/16 17/42/16
f 23/61/17 21/55/17 17/43/17
f 20/52/18 18/46/18 22/58/18
o Cylinder
v -4.000000 2.000000 -8.000000
v -4.000000 10.000000 -8.000000
v -3.804910 2.000000 -7.980785
v -3.804910 10.000000 -7.980785
v -3.617316 2.000000 -7.923880
v -3.617316 10.000000 -7.923880
v -3.444430 2.000000 -7.831470
v -3.444430 10.000000 -7.831470
v -3.292893 2.000000 -7.707107
v -3.292893 10.000000 -7.707107
v -3.168530 2.000000 -7.555570
v -3.168530 10.000000 -7.555570
v -3.076120 2.000000 -7.382683
v -3.076120 10.000000 -7.382683
v -3.019215 2.000000 -7.195090
v -3.019215 10.000000 -7.195090
v -3.000000 2.000000 -7.000000
v -3.000000 10.000000 -7.000000
v -3.019215 2.000000 -6.804910
v -3.019215 10.000000 -6.804910
v -3.076120 2.000000 -6.617317
v -3.076120 10.000000 -6.617317
v -3.168530 2.000000 -6.444430
v -3.168530 10.000000 -6.444430
v -3.292893 2.000000 -6.292893
v -3.292893 10.000000 -6.292893
v -3.444430 2.000000 -6.168530
v -3.444430 10.000000 -6.168530
v -3.617316 2.000000 -6.076120
v -3.617316 10.000000 -6.076120
v -3.804910 2.000000 -6.019215
v -3.804910 10.000000 -6.019215
v -4.000000 2.000000 -6.000000
v -4.000000 10.000000 -6.000000
v -4.195090 2.000000 -6.019215
v -4.195090 10.000000 -6.019215
v -4.382683 2.000000 -6.076120
v -4.382683 10.000000 -6.076120
v -4.555570 2.000000 -6.168530
v -4.555570 10.000000 -6.168530
v -4.707107 2.000000 -6.292893
v -4.707107 10.000000 -6.292893
v -4.831470 2.000000 -6.444430
v -4.831470 10.000000 -6.444430
v -4.923880 2.000000 -6.617317
v -4.923880 10.000000 -6.617317
v -4.980785 2.000000 -6.804910
v -4.980785 10.000000 -6.804910
v -5.000000 2.000000 -7.000000
v -5.000000 10.000000 -7.000000
v -4.980785 2.000000 -7.195090
v -4.980785 10.000000 -7.195090
v -4.923880 2.000000 -7.382683
v -4.923880 10.000000 -7.382683
v -4.831470 2.000000 -7.555570
v -4.831470 10.000000 -7.555570
v -4.707107 2.000000 -7.707107
v -4.707107 10.000000 -7.707107
v -4.555570 2.000000 -7.831470
v -4.555570 10.000000 -7.831470
v -4.382683 2.000000 -7.923880
v -4.382683 10.000000 -7.923880
v -4.195090 2.000000 -7.980785
v -4.195090 10.000000 -7.980785
vn 0.0980 -0.0000 -0.9952
vn 0.2903 -0.0000 -0.9569
vn 0.4714 -0.0000 -0.8819
vn 0.6344 -0.0000 -0.7730
vn 0.7730 -0.0000 -0.6344
vn 0.8819 -0.0000 -0.4714
vn 0.9569 -0.0000 -0.2903
vn 0.9952 -0.0000 -0.0980
vn 0.9952 -0.0000 0.0980
vn 0.9569 -0.0000 0.2903
vn 0.8819 -0.0000 0.4714
vn 0.7730 -0.0000 0.6344
vn 0.6344 -0.0000 0.7730
vn 0.4714 -0.0000 0.8819
vn 0.2903 -0.0000 0.9569
vn 0.0980 -0.0000 0.9952
vn -0.0980 -0.0000 0.9952
vn -0.2903 -0.0000 0.9569
vn -0.4714 -0.0000 0.8819
vn -0.6344 -0.0000 0.7730
vn -0.7730 -0.0000 0.6344
vn -0.8819 -0.0000 0.4714
vn -0.9569 -0.0000 0.2903
vn -0.9952 -0.0000 0.0980
vn -0.9952 -0.0000 -0.0980
vn -0.9569 -0.0000 -0.2903
vn -0.8819 -0.0000 -0.4714
vn -0.7730 -0.0000 -0.6344
vn -0.6344 -0.0000 -0.7730
vn -0.4714 -0.0000 -0.8819
vn -0.0000 1.0000 -0.0000
vn -0.2903 -0.0000 -0.9569
vn -0.0980 -0.0000 -0.9952
vn -0.0000 -1.0000 -0.0000
vt 0.500000 -2.300000
vt 0.500000 1.200000
vt 0.500000 1.200000
vt 0.500000 3.300000
vt 0.636563 -2.300000
vt 0.636563 1.186550
vt 0.636563 3.300000
vt 0.636563 1.186550
vt 0.767878 -2.300000
vt 0.767878 1.146716
vt 0.767878 3.300000
vt 0.767878 1.146716
vt 0.888899 -2.300000
vt 0.888899 1.082029
vt 0.888899 3.300000
vt 0.888899 1.082029
vt 0.994975 -2.300000
vt 0.994975 0.994975
vt 0.994975 3.300000
vt 0.994975 0.994975
vt 0.888899 -2.300000
vt 1.082029 0.888899
vt 0.888899 3.300000
vt 1.082029 0.888899
vt 0.767878 -2.300000
vt 1.146716 0.767878
vt 0.767878 3.300000
vt 1.146716 0.767878
vt 0.636563 -2.300000
vt 1.186550 0.636563
vt 0.636563 3.300000
vt 1.186550 0.636563
vt 0.500000 -2.300000
vt 1.200000 0.500000
vt 0.500000 3.300000
vt 1.200000 0.500000
vt 0.363437 -2.300000
vt 1.186550 0.363437
vt 0.363437 3.300000
vt 1.186550 0.363437
vt 0.232122 -2.300000
vt 1.146716 0.232122
vt 0.232122 3.300000
vt 1.146716 0.232122
vt 0.111101 -2.300000
vt 1.082029 0.111101
vt 0.111101 3.300000
vt 1.082029 0.111101
vt 0.994975 -2.300000
vt 0.005025 -2.300000
vt 0.994975 0.005025
vt 0.005025 3.300000
vt 0.994975 3.300000
vt 0.994975 0.005025
vt 0.888899 -2.300000
vt 0.888899 -0.082029
vt 0.888899 3.300000
vt 0.888899 -0.082029
vt 0.767878 -2.300000
vt 0.767878 -0.146716
vt 0.767878 3.300000
vt 0.767878 -0.146716
vt 0.636563 -2.300000
vt 0.636563 -0.186550
vt 0.636563 3.300000
vt 0.636563 -0.186550
vt 0.500000 -2.300000
vt 0.500000 -0.200000
vt 0.500000 3.300000
vt 0.500000 -0.200000
vt 0.363437 -2.300000
vt 0.363437 -0.186550
vt 0.363437 3.300000
vt 0.363437 -0.186550
vt 0.232122 -2.300000
vt 0.232122 -0.146716
vt 0.232122 3.300000
vt 0.232122 -0.146716
vt 0.111101 -2.300000
vt 0.111101 -0.082029
vt 0.111101 3.300000
vt 0.111101 -0.082029
vt 0.005025 -2.300000
vt 0.005025 0.005025
vt 0.005025 3.300000
vt 0.005025 0.005025
vt 0.111101 -2.300000
vt -0.082029 0.111101
vt 0.111101 3.300000
vt -0.082029 0.111101
vt 0.232122 -2.300000
vt -0.146716 0.232122
vt 0.232122 3.300000
vt -0.146716 0.232122
vt 0.363437 -2.300000
vt -0.186550 0.363437
vt 0.363437 3.300000
vt -0.186550 0.363437
vt 0.500000 -2.300000
vt -0.200000 0.500000
vt 0.500000 3.300000
vt -0.200000 0.500000
vt 0.636563 -2.300000
vt -0.186550 0.636563
vt 0.636563 3.300000
vt -0.186550 0.636563
vt 0.767878 -2.300000
vt -0.146716 0.767878
vt 0.767878 3.300000
vt -0.146716 0.767878
vt 0.888899 -2.300000
vt -0.082029 0.888899
vt 0.888899 3.300000
vt -0.082029 0.888899
vt 0.005025 -2.300000
vt 0.994975 -2.300000
vt 0.005025 0.994975
vt 0.994975 3.300000
vt 0.005025 3.300000
vt 0.005025 0.994975
vt 0.111101 -2.300000
vt 0.111101 1.082029
vt 0.111101 3.300000
vt 0.111101 1.082029
vt 0.232122 -2.300000
vt 0.232122 1.146716
vt 0.232122 1.146716
vt 0.232122 3.300000
vt 0.363437 -2.300000
vt 0.363437 1.186550
vt 0.363437 1.186550
vt 0.363437 3.300000
s 0
f 26/68/19 27/69/19 25/65/19
f 28/71/20 29/73/20 27/69/20
f 30/75/21 31/77/21 29/73/21
f 32/79/22 33/81/22 31/77/22
f 34/83/23 35/85/23 33/81/23
f 36/87/24 37/89/24 35/85/24
f 38/91/25 39/93/25 37/89/25
f 40/95/26 41/97/26 39/93/26
f 42/99/27 43/101/27 41/97/27
f 44/103/28 45/105/28 43/101/28
f 46/107/29 47/109/29 45/105/29
f 48/111/30 49/114/30 47/109/30
f 50/117/31 51/119/31 49/113/31
f 52/121/32 53/123/32 51/119/32
f 54/125/33 55/127/33 53/123/33
f 56/129/34 57/131/34 55/127/34
f 58/133/35 59/135/35 57/131/35
f 60/137/36 61/139/36 59/135/36
f 62/141/37 63/143/37 61/139/37
f 64/145/38 65/147/38 63/143/38
f 66/149/39 67/151/39 65/147/39
f 68/153/40 69/155/40 67/151/40
f 70/157/41 71/159/41 69/155/41
f 72/161/42 73/163/42 71/159/42
f 74/165/43 75/167/43 73/163/43
f 76/169/44 77/171/44 75/167/44
f 78/173/45 79/175/45 77/171/45
f 80/177/46 81/180/46 79/175/46
f 82/183/47 83/185/47 81/179/47
f 84/187/48 85/189/48 83/185/48
f 62/142/49 46/108/49 30/76/49
f 86/192/50 87/193/50 85/189/50
f 88/196/51 25/65/51 87/193/51
f 55/128/52 71/160/52 87/194/52
f 26/68/19 28/71/19 27/69/19
f 28/71/20 30/75/20 29/73/20
f 30/75/21 32/79/21 31/77/21
f 32/79/22 34/83/22 33/81/22
f 34/83/23 36/87/23 35/85/23
f 36/87/24 38/91/24 37/89/24
f 38/91/25 40/95/25 39/93/25
f 40/95/26 42/99/26 41/97/26
f 42/99/27 44/103/27 43/101/27
f 44/103/28 46/107/28 45/105/28
f 46/107/29 48/111/29 47/109/29
f 48/111/30 50/116/30 49/114/30
f 50/117/31 52/121/31 51/119/31
f 52/121/32 54/125/32 53/123/32
f 54/125/33 56/129/33 55/127/33
f 56/129/34 58/133/34 57/131/34
f 58/133/35 60/137/35 59/135/35
f 60/137/36 62/141/36 61/139/36
f 62/141/37 64/145/37 63/143/37
f 64/145/38 66/149/38 65/147/38
f 66/149/39 68/153/39 67/151/39
f 68/153/40 70/157/40 69/155/40
f 70/157/41 72/161/41 71/159/41
f 72/161/42 74/165/42 73/163/42
f 74/165/43 76/169/43 75/167/43
f 76/169/44 78/173/44 77/171/44
f 78/173/45 80/177/45 79/175/45
f 80/177/46 82/182/46 81/180/46
f 82/183/47 84/187/47 83/185/47
f 84/187/48 86/192/48 85/189/48
f 30/76/49 28/72/49 26/67/49
f 26/67/49 88/195/49 86/191/49
f 86/191/49 84/188/49 82/184/49
f 82/184/49 80/178/49 78/174/49
f 78/174/49 76/170/49 74/166/49
f 74/166/49 72/162/49 70/158/49
f 70/158/49 68/154/49 66/150/49
f 66/150/49 64/146/49 62/142/49
f 62/142/49 60/138/49 58/134/49
f 58/134/49 56/130/49 54/126/49
f 54/126/49 52/122/49 50/118/49
f 50/118/49 48/112/49 46/108/49
f 46/108/49 44/104/49 42/100/49
f 42/100/49 40/96/49 38/92/49
f 38/92/49 36/88/49 34/84/49
f 34/84/49 32/80/49 30/76/49
f 30/76/49 26/67/49 86/191/49
f 86/191/49 82/184/49 78/174/49
f 78/174/49 74/166/49 70/158/49
f 70/158/49 66/150/49 62/142/49
f 62/142/49 58/134/49 54/126/49
f 54/126/49 50/118/49 46/108/49
f 46/108/49 42/100/49 38/92/49
f 38/92/49 34/84/49 30/76/49
f 30/76/49 86/191/49 78/174/49
f 78/174/49 70/158/49 62/142/49
f 62/142/49 54/126/49 46/108/49
f 46/108/49 38/92/49 30/76/49
f 30/76/49 78/174/49 62/142/49
f 86/192/50 88/196/50 87/193/50
f 88/196/51 26/68/51 25/65/51
f 87/194/52 25/66/52 27/70/52
f 27/70/52 29/74/52 31/78/52
f 31/78/52 33/82/52 35/86/52
f 35/86/52 37/90/52 39/94/52
f 39/94/52 41/98/52 43/102/52
f 43/102/52 45/106/52 47/110/52
f 47/110/52 49/115/52 51/120/52
f 51/120/52 53/124/52 55/128/52
f 55/128/52 57/132/52 59/136/52
f 59/136/52 61/140/52 63/144/52
f 63/144/52 65/148/52 67/152/52
f 67/152/52 69/156/52 71/160/52
f 71/160/52 73/164/52 75/168/52
f 75/168/52 77/172/52 79/176/52
f 79/176/52 81/181/52 83/186/52
f 83/186/52 85/190/52 87/194/52
f 87/194/52 27/70/52 31/78/52
f 31/78/52 35/86/52 39/94/52
f 39/94/52 43/102/52 47/110/52
f 47/110/52 51/120/52 55/128/52
f 55/128/52 59/136/52 63/144/52
f 63/144/52 67/152/52 71/160/52
f 71/160/52 75/168/52 79/176/52
f 79/176/52 83/186/52 87/194/52
f 87/194/52 31/78/52 39/94/52
f 39/94/52 47/110/52 55/128/52
f 55/128/52 63/144/52 71/160/52
f 71/160/52 79/176/52 87/194/52
f 87/194/52 39/94/52 55/128/52
o Cylinder.001
v 6.000000 2.000000 -8.000000
v 6.000000 10.000000 -8.000000
v 6.195090 2.000000 -7.980785
v 6.195090 10.000000 -7.980785
v 6.382683 2.000000 -7.923880
v 6.382683 10.000000 -7.923880
v 6.555570 2.000000 -7.831470
v 6.555570 10.000000 -7.831470
v 6.707107 2.000000 -7.707107
v 6.707107 10.000000 -7.707107
v 6.831470 2.000000 -7.555570
v 6.831470 10.000000 -7.555570
v 6.923880 2.000000 -7.382683
v 6.923880 10.000000 -7.382683
v 6.980785 2.000000 -7.195090
v 6.980785 10.000000 -7.195090
v 7.000000 2.000000 -7.000000
v 7.000000 10.000000 -7.000000
v 6.980785 2.000000 -6.804910
v 6.980785 10.000000 -6.804910
v 6.923880 2.000000 -6.617317
v 6.923880 10.000000 -6.617317
v 6.831470 2.000000 -6.444430
v 6.831470 10.000000 -6.444430
v 6.707107 2.000000 -6.292893
v 6.707107 10.000000 -6.292893
v 6.555570 2.000000 -6.168530
v 6.555570 10.000000 -6.168530
v 6.382683 2.000000 -6.076120
v 6.382683 10.000000 -6.076120
v 6.195090 2.000000 -6.019215
v 6.195090 10.000000 -6.019215
v 6.000000 2.000000 -6.000000
v 6.000000 10.000000 -6.000000
v 5.804910 2.000000 -6.019215
v 5.804910 10.000000 -6.019215
v 5.617317 2.000000 -6.076120
v 5.617317 10.000000 -6.076120
v 5.444430 2.000000 -6.168530
v 5.444430 10.000000 -6.168530
v 5.292893 2.000000 -6.292893
v 5.292893 10.000000 -6.292893
v 5.168530 2.000000 -6.444430
v 5.168530 10.000000 -6.444430
v 5.076120 2.000000 -6.617317
v 5.076120 10.000000 -6.617317
v 5.019215 2.000000 -6.804910
v 5.019215 10.000000 -6.804910
v 5.000000 2.000000 -7.000000
v 5.000000 10.000000 -7.000000
v 5.019215 2.000000 -7.195090
v 5.019215 10.000000 -7.195090
v 5.076120 2.000000 -7.382683
v 5.076120 10.000000 -7.382683
v 5.168530 2.000000 -7.555570
v 5.168530 10.000000 -7.555570
v 5.292893 2.000000 -7.707107
v 5.292893 10.000000 -7.707107
v 5.444430 2.000000 -7.831470
v 5.444430 10.000000 -7.831470
v 5.617317 2.000000 -7.923880
v 5.617317 10.000000 -7.923880
v 5.804910 2.000000 -7.980785
v 5.804910 10.000000 -7.980785
vn 0.0980 -0.0000 -0.9952
vn 0.2903 -0.0000 -0.9569
vn 0.4714 -0.0000 -0.8819
vn 0.6344 -0.0000 -0.7730
vn 0.7730 -0.0000 -0.6344
vn 0.8819 -0.0000 -0.4714
vn 0.9569 -0.0000 -0.2903
vn 0.9952 -0.0000 -0.0980
vn 0.9952 -0.0000 0.0980
vn 0.9569 -0.0000 0.2903
vn 0.8819 -0.0000 0.4714
vn 0.7730 -0.0000 0.6344
vn 0.6344 -0.0000 0.7730
vn 0.4714 -0.0000 0.8819
vn 0.2903 -0.0000 0.9569
vn 0.0980 -0.0000 0.9952
vn -0.0980 -0.0000 0.9952
vn -0.2903 -0.0000 0.9569
vn -0.4714 -0.0000 0.8819
vn -0.6344 -0.0000 0.7730
vn -0.7730 -0.0000 0.6344
vn -0.8819 -0.0000 0.4714
vn -0.9569 -0.0000 0.2903
vn -0.9952 -0.0000 0.0980
vn -0.9952 -0.0000 -0.0980
vn -0.9569 -0.0000 -0.2903
vn -0.8819 -0.0000 -0.4714
vn -0.7730 -0.0000 -0.6344
vn -0.6344 -0.0000 -0.7730
vn -0.4714 -0.0000 -0.8819
vn -0.0000 1.0000 -0.0000
vn -0.2903 -0.0000 -0.9569
vn -0.0980 -0.0000 -0.9952
vn -0.0000 -1.0000 -0.0000
vt 0.500000 -2.300000
vt 0.500000 1.200000
vt 0.500000 1.200000
vt 0.500000 3.300000
vt 0.636563 -2.300000
vt 0.636563 1.186550
vt 0.636563 3.300000
vt 0.636563 1.186550
vt 0.767878 -2.300000
vt 0.767878 1.146716
vt 0.767878 3.300000
vt 0.767878 1.146716
vt 0.888899 -2.300000
vt 0.888899 1.082029
vt 0.888899 3.300000
vt 0.888899 1.082029
vt 0.994975 -2.300000
vt 0.994975 0.994975
vt 0.994975 3.300000
vt 0.994975 0.994975
vt 0.888899 -2.300000
vt 1.082029 0.888899
vt 0.888899 3.300000
vt 1.082029 0.888899
vt 0.767878 -2.300000
vt 1.146716 0.767878
vt 0.767878 3.300000
vt 1.146716 0.767878
vt 0.636563 -2.300000
vt 1.186550 0.636563
vt 0.636563 3.300000
vt 1.186550 0.636563
vt 0.500000 -2.300000
vt 1.200000 0.500000
vt 0.500000 3.300000
vt 1.200000 0.500000
vt 0.363437 -2.300000
vt 1.186550 0.363437
vt 0.363437 3.300000
vt 1.186550 0.363437
vt 0.232122 -2.300000
vt 1.146716 0.232122
vt 0.232122 3.300000
vt 1.146716 0.232122
vt 0.111101 -2.300000
vt 1.082029 0.111101
vt 0.111101 3.300000
vt 1.082029 0.111101
vt 0.994975 -2.300000
vt 0.005025 -2.300000
vt 0.994975 0.005025
vt 0.005025 3.300000
vt 0.994975 3.300000
vt 0.994975 0.005025
vt 0.888899 -2.300000
vt 0.888899 -0.082029
vt 0.888899 3.300000
vt 0.888899 -0.082029
vt 0.767878 -2.300000
vt 0.767878 -0.146716
vt 0.767878 3.300000
vt 0.767878 -0.146716
vt 0.636563 -2.300000
vt 0.636563 -0.186550
vt 0.636563 3.300000
vt 0.636563 -0.186550
vt 0.500000 -2.300000
vt 0.500000 -0.200000
vt 0.500000 3.300000
vt 0.500000 -0.200000
vt 0.363437 -2.300000
vt 0.363437 -0.186550
vt 0.363437 3.300000
vt 0.363437 -0.186550
vt 0.232122 -2.300000
vt 0.232122 -0.146716
vt 0.232122 3.300000
vt 0.232122 -0.146716
vt 0.111101 -2.300000
vt 0.111101 -0.082029
vt 0.111101 3.300000
vt 0.111101 -0.082029
vt 0.005025 -2.300000
vt 0.005025 0.005025
vt 0.005025 3.300000
vt 0.005025 0.005025
vt 0.111101 -2.300000
vt -0.082029 0.111101
vt 0.111101 3.300000
vt -0.082029 0.111101
vt 0.232122 -2.300000
vt -0.146716 0.232122
vt 0.232122 3.300000
vt -0.146716 0.232122
vt 0.363437 -2.300000
vt -0.186550 0.363437
vt 0.363437 3.300000
vt -0.186550 0.363437
vt 0.500000 -2.300000
vt -0.200000 0.500000
vt 0.500000 3.300000
vt -0.200000 0.500000
vt 0.636563 -2.300000
vt -0.186550 0.636563
vt 0.636563 3.300000
vt -0.186550 0.636563
vt 0.767878 -2.300000
vt -0.146716 0.767878
vt 0.767878 3.300000
vt -0.146716 0.767878
vt 0.888899 -2.300000
vt -0.082029 0.888899
vt 0.888899 3.300000
vt -0.082029 0.888899
vt 0.005025 -2.300000
vt 0.994975 -2.300000
vt 0.005025 0.994975
vt 0.994975 3.300000
vt 0.005025 3.300000
vt 0.005025 0.994975
vt 0.111101 -2.300000
vt 0.111101 1.082029
vt 0.111101 3.300000
vt 0.111101 1.082029
vt 0.232122 -2.300000
vt 0.232122 1.146716
vt 0.232122 1.146716
vt 0.232122 3.300000
vt 0.363437 -2.300000
vt 0.363437 1.186550
vt 0.363437 1.186550
vt 0.363437 3.300000
s 0
f 90/200/53 91/201/53 89/197/53
f 92/203/54 93/205/54 91/201/54
f 94/207/55 95/209/55 93/205/55
f 96/211/56 97/213/56 95/209/56
f 98/215/57 99/217/57 97/213/57
f 100/219/58 101/221/58 99/217/58
f 102/223/59 103/225/59 101/221/59
f 104/227/60 105/229/60 103/225/60
f 106/231/61 107/233/61 105/229/61
f 108/235/62 109/237/62 107/233/62
f 110/239/63 111/241/63 109/237/63
f 112/243/64 113/246/64 111/241/64
f 114/249/65 115/251/65 113/245/65
f 116/253/66 117/255/66 115/251/66
f 118/257/67 119/259/67 117/255/67
f 120/261/68 121/263/68 119/259/68
f 122/265/69 123/267/69 121/263/69
f 124/269/70 125/271/70 123/267/70
f 126/273/71 127/275/71 125/271/71
f 128/277/72 129/279/72 127/275/72
f 130/281/73 131/283/73 129/279/73
f 132/285/74 133/287/74 131/283/74
f 134/289/75 135/291/75 133/287/75
f 136/293/76 137/295/76 135/291/76
f 138/297/77 139/299/77 137/295/77
f 140/301/78 141/303/78 139/299/78
f 142/305/79 143/307/79 141/303/79
f 144/309/80 145/312/80 143/307/80
f 146/315/81 147/317/81 145/311/81
f 148/319/82 149/321/82 147/317/82
f 126/274/83 110/240/83 94/208/83
f 150/324/84 151/325/84 149/321/84
f 152/328/85 89/197/85 151/325/85
f 119/260/86 135/292/86 151/326/86
f 90/200/53 92/203/53 91/201/53
f 92/203/54 94/207/54 93/205/54
f 94/207/55 96/211/55 95/209/55
f 96/211/56 98/215/56 97/213/56
f 98/215/57 100/219/57 99/217/57
f 100/219/58 102/223/58 101/221/58
f 102/223/59 104/227/59 103/225/59
f 104/227/60 106/231/60 105/229/60
f 106/231/61 108/235/61 107/233/61
f 108/235/62 110/239/62 109/237/62
f 110/239/63 112/243/63 111/241/63
f 112/243/64 114/248/64 113/246/64
f 114/249/65 116/253/65 115/251/65
f 116/253/66 118/257/66 117/255/66
f 118/257/67 120/261/67 119/259/67
f 120/261/68 122/265/68 121/263/68
f 122/265/69 124/269/69 123/267/69
f 124/269/70 126/273/70 125/271/70
f 126/273/71 128/277/71 127/275/71
f 128/277/72 130/281/72 129/279/72
f 130/281/73 132/285/73 131/283/73
f 132/285/74 134/289/74 133/287/74
f 134/289/75 136/293/75 135/291/75
f 136/293/76 138/297/76 137/295/76
f 138/297/77 140/301/77 139/299/77
f 140/301/78 142/305/78 141/303/78
f 142/305/79 144/309/79 143/307/79
f 144/309/80 146/314/80 145/312/80
f 146/315/81 148/319/81 147/317/81
f 148/319/82 150/324/82 149/321/82
f 94/208/83 92/204/83 90/199/83
f 90/199/83 152/327/83 150/323/83
f 150/323/83 148/320/83 146/316/83
f 146/316/83 144/310/83 142/306/83
f 142/306/83 140/302/83 138/298/83
f 138/298/83 136/294/83 134/290/83
f 134/290/83 132/286/83 130/282/83
f 130/282/83 128/278/83 126/274/83
f 126/274/83 124/270/83 122/266/83
f 122/266/83 120/262/83 118/258/83
f 118/258/83 116/254/83 114/250/83
f 114/250/83 112/244/83 110/240/83
f 110/240/83 108/236/83 106/232/83
f 106/232/83 104/228/83 102/224/83
f 102/224/83 100/220/83 98/216/83
f 98/216/83 96/212/83 94/208/83
f 94/208/83 90/199/83 150/323/83
f 150/323/83 146/316/83 142/306/83
f 142/306/83 138/298/83 134/290/83
f 134/290/83 130/282/83 126/274/83
f 126/274/83 122/266/83 118/258/83
f 118/258/83 114/250/83 110/240/83
f 110/240/83 106/232/83 102/224/83
f 102/224/83 98/216/83 94/208/83
f 94/208/83 150/323/83 142/306/83
f 142/306/83 134/290/83 126/274/83
f 126/274/83 118/258/83 110/240/83
f 110/240/83 102/224/83 94/208/83
f 94/208/83 142/306/83 126/274/83
f 150/324/84 152/328/84 151/325/84
f 152/328/85 90/200/85 89/197/85
f 151/326/86 89/198/86 91/202/86
f 91/202/86 93/206/86 95/210/86
f 95/210/86 97/214/86 99/218/86
f 99/218/86 101/222/86 103/226/86
f 103/226/86 105/230/86 107/234/86
f 107/234/86 109/238/86 111/242/86
f 111/242/86 113/247/86 115/252/86
f 115/252/86 117/256/86 119/260/86
f 119/260/86 121/264/86 123/268/86
f 123/268/86 125/272/86 127/276/86
f 127/276/86 129/280/86 131/284/86
f 131/284/86 133/288/86 135/292/86
f 135/292/86 137/296/86 139/300/86
f 139/300/86 141/304/86 143/308/86
f 143/308/86 145/313/86 147/318/86
f 147/318/86 149/322/86 151/326/86
f 151/326/86 91/202/86 95/210/86
f 95/210/86 99/218/86 103/226/86
f 103/226/86 107/234/86 111/242/86
f 111/242/86 115/252/86 119/260/86
f 119/260/86 123/268/86 127/276/86
f 127/276/86 131/284/86 135/292/86
f 135/292/86 139/300/86 143/308/86
f 143/308/86 147/318/86 151/326/86
f 151/326/86 95/210/86 103/226/86
f 103/226/86 111/242/86 119/260/86
f 119/260/86 127/276/86 135/292/86
f 135/292/86 143/308/86 151/326/86
f 151/326/86 103/226/86 119/260/86
