# Blender 3.6.2
# www.blender.org
mtllib scene.mtl
o Cube
v -10.000000 -1.000000 0.000000
v -10.000000 0.000000 0.000000
v -10.000000 -1.000000 -20.000000
v -10.000000 0.000000 -20.000000
v 10.000000 -1.000000 0.000000
v 10.000000 0.000000 0.000000
v 10.000000 -1.000000 -20.000000
v 10.000000 0.000000 -20.000000
vn -1.0000 -0.0000 -0.0000
vn -0.0000 -0.0000 -1.0000
vn 1.0000 -0.0000 -0.0000
vn -0.0000 -0.0000 1.0000
vn -0.0000 -1.0000 -0.0000
vn -0.0000 1.0000 -0.0000
vt -4.500000 0.750000
vt 5.500000 0.250000
vt -4.500000 0.250000
vt 5.500000 0.750000
vt 5.500000 5.500000
vt -4.500000 -4.500000
vt -4.500000 5.500000
vt 5.500000 -4.500000
s 0
usemtl Material
f 2/1/1 3/2/1 1/3/1
f 4/1/2 7/2/2 3/3/2
f 8/4/3 5/3/3 7/2/3
f 6/4/4 1/3/4 5/2/4
f 7/5/5 1/6/5 3/7/5
f 4/7/6 6/8/6 8/5/6
f 2/1/1 4/4/1 3/2/1
f 4/1/2 8/4/2 7/2/2
f 8/4/3 6/1/3 5/3/3
f 6/4/4 2/1/4 1/3/4
f 7/5/5 5/8/5 1/6/5
f 4/7/6 2/6/6 6/8/6
o Cube.001
v -7.000000 0.000000 -9.000000
v -7.000000 2.000000 -9.000000
v -7.000000 0.000000 -11.000000
v -7.000000 2.000000 -11.000000
v -5.000000 0.000000 -9.000000
v -5.000000 2.000000 -9.000000
v -5.000000 0.000000 -11.000000
v -5.000000 2.000000 -11.000000
vn -1.0000 -0.0000 -0.0000
vn -0.0000 -0.0000 -1.0000
vn 1.0000 -0.0000 -0.0000
vn -0.0000 -0.0000 1.0000
vn -0.0000 -1.0000 -0.0000
vn -0.0000 1.0000 -0.0000
vt 0.000000 1.000000
vt 1.000000 0.000000
vt 0.000000 0.000000
vt 1.000000 1.000000
s 0
usemtl Material
f 10/9/7 11/10/7 9/11/7
f 12/9/8 15/10/8 11/11/8
f 16/12/9 13/11/9 15/10/9
f 14/12/10 9/11/10 13/10/10
f 15/12/11 9/11/11 11/9/11
f 12/9/12 14/10/12 16/12/12
f 10/9/7 12/12/7 11/10/7
f 12/9/8 16/12/8 15/10/8
f 16/12/9 14/9/9 13/11/9
f 14/12/10 10/9/10 9/11/10
f 15/12/11 13/10/11 9/11/11
f 12/9/12 10/11/12 14/10/12
o Cube.002
v -3.000000 0.000000 -12.000000
v -3.000000 2.000000 -16.000000
v -3.000000 0.000000 -18.000000
v -3.000000 2.000000 -18.000000
v -1.000000 0.000000 -12.000000
v -1.000000 2.000000 -16.000000
v -1.000000 0.000000 -18.000000
v -1.000000 2.000000 -18.000000
vn -1.0000 -0.0000 -0.0000
vn -0.0000 -0.0000 -1.0000
vn 1.0000 -0.0000 -0.0000
vn -0.0000 0.8944 0.4472
vn -0.0000 -1.0000 -0.0000
vn -0.0000 1.0000 -0.0000
vt 0.000000 1.000000
vt 1.000000 0.000000
vt 0.000000 0.000000
vt 1.000000 1.000000
s 0
usemtl Material.001
f 18/13/13 19/14/13 17/15/13
f 20/13/14 23/14/14 19/15/14
f 23/14/15 22/13/15 21/15/15
f 22/16/16 17/15/16 21/14/16
f 23/16/17 17/15/17 19/13/17
f 20/13/18 22/14/18 24/16/18
f 18/13/13 20/16/13 19/14/13
f 20/13/14 24/16/14 23/14/14
f 23/14/15 24/16/15 22/13/15
f 22/16/16 18/13/16 17/15/16
f 23/16/17 21/14/17 17/15/17
f 20/13/18 18/15/18 22/14/18
o Cube.003
v 3.000000 0.000000 -18.000000
v -1.000000 2.000000 -18.000000
v -3.000000 0.000000 -18.000000
v -3.000000 2.000000 -18.000000
v 3.000000 0.000000 -20.000000
v -1.000000 2.000000 -20.000000
v -3.000000 0.000000 -20.000000
v -3.000000 2.000000 -20.000000
vn -0.0000 -0.0000 1.0000
vn -1.0000 -0.0000 -0.0000
vn -0.0000 -0.0000 -1.0000
vn 0.4472 0.8944 -0.0000
vn -0.0000 -1.0000 -0.0000
vn -0.0000 1.0000 -0.0000
vt 0.000000 1.000000
vt 1.000000 0.000000
vt 0.000000 0.000000
vt 1.000000 1.000000
s 0
usemtl Material.002
f 26/17/19 27/18/19 25/19/19
f 28/17/20 31/18/20 27/19/20
f 31/18/21 30/17/21 29/19/21
f 30/20/22 25/19/22 29/18/22
f 31/20/23 25/19/23 27/17/23
f 28/17/24 30/18/24 32/20/24
f 26/17/19 28/20/19 27/18/19
f 28/17/20 32/20/20 31/18/20
f 31/18/21 32/20/21 30/17/21
f 30/20/22 26/17/22 25/19/22
f 31/20/23 29/18/23 25/19/23
f 28/17/24 26/19/24 30/18/24
